<svg xmlns="http://www.w3.org/2000/svg" xmlns:xlink="http://www.w3.org/1999/xlink" width="534" zoomAndPan="magnify" viewBox="0 0 400.5 331.499995" height="442" preserveAspectRatio="xMidYMid meet" version="1.0"><defs><g/><clipPath id="655683f89a"><path d="M 0.0507812 0 L 399.949219 0 L 399.949219 331 L 0.0507812 331 Z M 0.0507812 0 " clip-rule="nonzero"/></clipPath><clipPath id="c3d9987c8a"><path d="M 0.0507812 90 L 100 90 L 100 147 L 0.0507812 147 Z M 0.0507812 90 " clip-rule="nonzero"/></clipPath><clipPath id="26ed08b337"><path d="M 34 307 L 348 307 L 348 319.746094 L 34 319.746094 Z M 34 307 " clip-rule="nonzero"/></clipPath><clipPath id="03e206face"><path d="M 158 11.210938 L 224 11.210938 L 224 70 L 158 70 Z M 158 11.210938 " clip-rule="nonzero"/></clipPath><clipPath id="25306c11de"><path d="M 319 303 L 343 303 L 343 319.746094 L 319 319.746094 Z M 319 303 " clip-rule="nonzero"/></clipPath><clipPath id="7fd7c21a81"><path d="M 360 303 L 385 303 L 385 319.746094 L 360 319.746094 Z M 360 303 " clip-rule="nonzero"/></clipPath></defs><g clip-path="url(#655683f89a)"><path fill="#ffffff" d="M 0.0507812 0 L 399.949219 0 L 399.949219 331 L 0.0507812 331 Z M 0.0507812 0 " fill-opacity="1" fill-rule="nonzero"/><path fill="#ffffff" d="M 0.0507812 0 L 399.949219 0 L 399.949219 331 L 0.0507812 331 Z M 0.0507812 0 " fill-opacity="1" fill-rule="nonzero"/></g><path fill="#199180" d="M 99.691406 125.792969 C 103.144531 102.65625 96.800781 82.730469 83.875 69.316406 C 70.949219 55.898438 51.28125 48.910156 27.996094 51.640625 C 21.175781 97.996094 53.289062 131.175781 99.691406 125.792969 Z M 99.691406 125.792969 " fill-opacity="1" fill-rule="nonzero"/><path fill="#ffffff" d="M 95.597656 121.9375 L 33.378906 57.347656 C 33.296875 57.265625 33.296875 57.183594 33.378906 57.183594 C 33.457031 57.105469 33.539062 57.105469 33.539062 57.183594 L 96 121.453125 C 96.160156 121.613281 96.160156 121.773438 96 121.9375 C 95.835938 122.097656 95.757812 122.097656 95.597656 121.9375 Z M 95.597656 121.9375 " fill-opacity="1" fill-rule="nonzero"/><path fill="#ffffff" d="M 59.871094 84.578125 C 57.621094 83.777344 55.214844 83.375 52.804688 83.292969 C 51.601562 83.214844 50.398438 83.292969 49.273438 83.535156 C 48.070312 83.695312 46.945312 84.015625 45.820312 84.417969 C 45.660156 84.5 45.5 84.417969 45.417969 84.179688 C 45.339844 84.015625 45.417969 83.855469 45.660156 83.777344 C 46.863281 83.457031 47.988281 83.132812 49.273438 83.054688 C 50.476562 82.894531 51.683594 82.894531 52.886719 82.972656 C 55.292969 83.132812 57.703125 83.617188 59.949219 84.578125 C 59.871094 84.5 59.871094 84.5 59.871094 84.578125 Z M 59.871094 84.578125 " fill-opacity="1" fill-rule="nonzero"/><path fill="#ffffff" d="M 78.738281 104.179688 C 77.933594 101.933594 77.453125 99.523438 77.371094 97.113281 C 77.292969 95.90625 77.371094 94.703125 77.53125 93.496094 C 77.695312 92.292969 78.015625 91.085938 78.417969 89.960938 C 78.496094 89.800781 78.65625 89.722656 78.816406 89.722656 C 78.976562 89.722656 79.058594 89.960938 79.058594 90.121094 C 78.65625 91.246094 78.253906 92.371094 78.09375 93.496094 C 77.855469 94.703125 77.773438 95.828125 77.773438 97.03125 C 77.773438 99.441406 78.09375 101.851562 78.816406 104.101562 C 78.898438 104.179688 78.816406 104.179688 78.738281 104.179688 C 78.816406 104.179688 78.816406 104.179688 78.738281 104.179688 Z M 78.738281 104.179688 " fill-opacity="1" fill-rule="nonzero"/><path fill="#ffffff" d="M 85.402344 111.011719 C 83.152344 110.207031 80.746094 109.804688 78.335938 109.726562 C 77.132812 109.644531 75.925781 109.726562 74.804688 109.964844 C 73.597656 110.125 72.476562 110.449219 71.351562 110.847656 C 71.191406 110.929688 71.03125 110.847656 70.949219 110.609375 C 70.871094 110.367188 70.949219 110.285156 71.191406 110.207031 C 72.394531 109.886719 73.519531 109.5625 74.804688 109.484375 C 76.007812 109.324219 77.210938 109.324219 78.417969 109.402344 C 80.824219 109.5625 83.234375 110.046875 85.480469 111.011719 C 85.480469 110.929688 85.480469 110.929688 85.402344 111.011719 C 85.480469 111.011719 85.402344 111.011719 85.402344 111.011719 Z M 85.402344 111.011719 " fill-opacity="1" fill-rule="nonzero"/><path fill="#ffffff" d="M 50.15625 74.617188 C 49.351562 72.367188 48.871094 69.957031 48.792969 67.546875 C 48.710938 66.34375 48.792969 65.140625 48.953125 63.933594 C 49.113281 62.730469 49.433594 61.523438 49.835938 60.398438 C 49.914062 60.238281 50.074219 60.15625 50.238281 60.15625 C 50.398438 60.15625 50.476562 60.398438 50.476562 60.558594 C 50.074219 61.683594 49.675781 62.808594 49.515625 63.933594 C 49.273438 65.140625 49.191406 66.261719 49.191406 67.46875 C 49.191406 69.878906 49.515625 72.289062 50.238281 74.539062 C 50.238281 74.617188 50.238281 74.617188 50.15625 74.617188 C 50.238281 74.617188 50.15625 74.617188 50.15625 74.617188 Z M 50.15625 74.617188 " fill-opacity="1" fill-rule="nonzero"/><path fill="#2ab19f" d="M 99.691406 125.792969 C 115.347656 108.359375 121.046875 88.355469 117.59375 69.957031 C 114.144531 51.5625 101.617188 34.933594 80.746094 24.410156 C 49.515625 59.195312 58.023438 104.664062 99.691406 125.792969 Z M 99.691406 125.792969 " fill-opacity="1" fill-rule="nonzero"/><path fill="#ffffff" d="M 98.40625 120.328125 L 82.027344 32.121094 C 82.027344 32.039062 82.027344 31.960938 82.109375 31.960938 C 82.191406 31.960938 82.269531 31.960938 82.269531 32.039062 L 99.050781 120.167969 C 99.050781 120.328125 98.96875 120.488281 98.808594 120.570312 C 98.566406 120.570312 98.40625 120.488281 98.40625 120.328125 Z M 98.40625 120.328125 " fill-opacity="1" fill-rule="nonzero"/><path fill="#ffffff" d="M 89.175781 69.394531 C 87.730469 67.46875 85.964844 65.78125 84.035156 64.414062 C 83.074219 63.691406 82.027344 63.128906 80.984375 62.648438 C 79.941406 62.085938 78.816406 61.765625 77.613281 61.441406 C 77.453125 61.363281 77.371094 61.203125 77.371094 61.042969 C 77.453125 60.882812 77.613281 60.800781 77.773438 60.800781 C 78.976562 61.121094 80.101562 61.523438 81.144531 62.167969 C 82.269531 62.730469 83.234375 63.371094 84.195312 64.09375 C 86.125 65.621094 87.808594 67.386719 89.175781 69.394531 C 89.253906 69.394531 89.253906 69.394531 89.175781 69.394531 Z M 89.175781 69.394531 " fill-opacity="1" fill-rule="nonzero"/><path fill="#ffffff" d="M 94.152344 96.148438 C 94.714844 93.820312 95.675781 91.570312 96.960938 89.480469 C 97.605469 88.4375 98.328125 87.472656 99.128906 86.589844 C 99.933594 85.625 100.894531 84.902344 101.859375 84.097656 C 102.019531 84.015625 102.179688 84.015625 102.339844 84.179688 C 102.421875 84.339844 102.421875 84.5 102.261719 84.660156 C 101.296875 85.382812 100.332031 86.105469 99.53125 86.988281 C 98.726562 87.875 97.925781 88.757812 97.28125 89.800781 C 96 91.808594 94.953125 93.980469 94.3125 96.308594 C 94.230469 96.226562 94.230469 96.226562 94.152344 96.148438 C 94.152344 96.226562 94.152344 96.226562 94.152344 96.148438 Z M 94.152344 96.148438 " fill-opacity="1" fill-rule="nonzero"/><path fill="#ffffff" d="M 95.917969 105.546875 C 94.472656 103.621094 92.707031 101.933594 90.78125 100.566406 C 89.816406 99.84375 88.773438 99.28125 87.730469 98.800781 C 86.683594 98.238281 85.5625 97.914062 84.355469 97.59375 C 84.195312 97.515625 84.117188 97.351562 84.117188 97.191406 C 84.195312 97.03125 84.355469 96.953125 84.519531 96.953125 C 85.722656 97.273438 86.847656 97.675781 87.890625 98.316406 C 89.015625 98.878906 89.976562 99.523438 90.941406 100.246094 C 92.867188 101.773438 94.632812 103.539062 95.917969 105.546875 C 96 105.546875 96 105.546875 95.917969 105.546875 Z M 95.917969 105.546875 " fill-opacity="1" fill-rule="nonzero"/><path fill="#ffffff" d="M 86.605469 55.738281 C 87.167969 53.410156 88.128906 51.160156 89.414062 49.070312 C 90.058594 48.027344 90.78125 47.0625 91.582031 46.179688 C 92.386719 45.214844 93.347656 44.492188 94.3125 43.6875 C 94.472656 43.609375 94.632812 43.609375 94.792969 43.769531 C 94.875 43.929688 94.875 44.089844 94.714844 44.25 C 93.75 44.972656 92.785156 45.699219 91.984375 46.582031 C 91.179688 47.464844 90.378906 48.347656 89.734375 49.394531 C 88.453125 51.402344 87.40625 53.570312 86.765625 55.898438 C 86.683594 55.820312 86.605469 55.820312 86.605469 55.738281 C 86.605469 55.820312 86.605469 55.738281 86.605469 55.738281 Z M 86.605469 55.738281 " fill-opacity="1" fill-rule="nonzero"/><g clip-path="url(#c3d9987c8a)"><path fill="#48dbc5" d="M 99.609375 125.710938 C 88.210938 105.226562 71.109375 93.335938 52.644531 90.683594 C 34.179688 88.035156 14.351562 94.460938 -2.347656 110.769531 C 20.453125 151.660156 66.132812 158.328125 99.609375 125.710938 Z M 99.609375 125.710938 " fill-opacity="1" fill-rule="nonzero"/></g><path fill="#ffffff" d="M 94.070312 125.148438 L 5.359375 112.054688 C 5.277344 112.054688 5.199219 111.972656 5.277344 111.894531 C 5.277344 111.8125 5.359375 111.734375 5.4375 111.8125 L 94.152344 124.585938 C 94.3125 124.585938 94.472656 124.746094 94.394531 124.988281 C 94.394531 125.070312 94.230469 125.230469 94.070312 125.148438 Z M 94.070312 125.148438 " fill-opacity="1" fill-rule="nonzero"/><path fill="#ffffff" d="M 42.929688 117.4375 C 40.683594 118.160156 38.515625 119.285156 36.589844 120.730469 C 35.625 121.453125 34.742188 122.175781 33.859375 123.058594 C 32.976562 123.863281 32.332031 124.90625 31.691406 125.871094 C 31.609375 126.03125 31.371094 126.03125 31.210938 125.953125 C 31.046875 125.871094 31.046875 125.632812 31.128906 125.46875 C 31.851562 124.507812 32.574219 123.542969 33.539062 122.660156 C 34.421875 121.773438 35.382812 121.050781 36.347656 120.410156 C 38.355469 119.042969 40.601562 118 42.929688 117.355469 C 42.929688 117.355469 42.929688 117.355469 42.929688 117.4375 Z M 42.929688 117.4375 " fill-opacity="1" fill-rule="nonzero"/><path fill="#ffffff" d="M 69.90625 121.375 C 67.898438 120.089844 66.050781 118.480469 64.527344 116.554688 C 63.722656 115.589844 63.082031 114.625 62.441406 113.582031 C 61.796875 112.535156 61.394531 111.410156 60.996094 110.207031 C 60.914062 110.046875 60.996094 109.886719 61.15625 109.804688 C 61.316406 109.726562 61.476562 109.804688 61.554688 109.964844 C 61.878906 111.089844 62.277344 112.214844 62.839844 113.257812 C 63.402344 114.304688 64.046875 115.347656 64.769531 116.230469 C 66.214844 118.242188 67.980469 119.925781 69.90625 121.375 C 69.90625 121.292969 69.90625 121.375 69.90625 121.375 Z M 69.90625 121.375 " fill-opacity="1" fill-rule="nonzero"/><path fill="#ffffff" d="M 79.300781 122.738281 C 77.050781 123.460938 74.882812 124.585938 72.957031 126.03125 C 71.992188 126.753906 71.109375 127.480469 70.226562 128.363281 C 69.34375 129.164062 68.703125 130.210938 68.058594 131.175781 C 67.980469 131.335938 67.738281 131.335938 67.578125 131.253906 C 67.417969 131.175781 67.417969 130.933594 67.496094 130.773438 C 68.21875 129.808594 68.941406 128.84375 69.90625 127.960938 C 70.789062 127.078125 71.753906 126.355469 72.714844 125.710938 C 74.722656 124.347656 76.972656 123.300781 79.300781 122.660156 C 79.300781 122.660156 79.300781 122.660156 79.300781 122.738281 Z M 79.300781 122.738281 " fill-opacity="1" fill-rule="nonzero"/><path fill="#ffffff" d="M 29.203125 115.429688 C 27.195312 114.144531 25.347656 112.535156 23.824219 110.609375 C 23.019531 109.644531 22.378906 108.679688 21.734375 107.636719 C 21.09375 106.589844 20.691406 105.46875 20.289062 104.261719 C 20.210938 104.101562 20.289062 103.941406 20.453125 103.859375 C 20.613281 103.78125 20.773438 103.859375 20.851562 104.019531 C 21.175781 105.144531 21.574219 106.269531 22.136719 107.316406 C 22.699219 108.359375 23.339844 109.402344 24.0625 110.285156 C 25.507812 112.296875 27.277344 113.984375 29.203125 115.429688 C 29.28125 115.347656 29.28125 115.429688 29.203125 115.429688 C 29.28125 115.429688 29.203125 115.429688 29.203125 115.429688 Z M 29.203125 115.429688 " fill-opacity="1" fill-rule="nonzero"/><path fill="#5b6f8b" d="M 326.574219 307.269531 L 55.453125 307.269531 L 55.453125 120.167969 C 55.453125 116.230469 58.667969 113.097656 62.519531 113.097656 L 319.429688 113.097656 C 323.363281 113.097656 326.492188 116.3125 326.492188 120.167969 L 326.492188 307.269531 Z M 326.574219 307.269531 " fill-opacity="1" fill-rule="nonzero"/><path fill="#ffffff" d="M 315.707031 123.949219 L 315.707031 296.429688 L 66.347656 296.429688 L 66.347656 123.949219 Z M 315.707031 123.949219 " fill-opacity="1" fill-rule="nonzero"/><g clip-path="url(#26ed08b337)"><path fill="#4a5b6b" d="M 335.082031 319.722656 L 46.863281 319.722656 C 39.960938 319.722656 34.421875 314.179688 34.421875 307.269531 L 347.449219 307.269531 C 347.527344 314.179688 341.988281 319.722656 335.082031 319.722656 Z M 335.082031 319.722656 " fill-opacity="1" fill-rule="nonzero"/></g><path fill="#5b6f8b" d="M 170.984375 312.492188 L 216.34375 312.492188 C 218.03125 312.492188 219.394531 310.160156 219.394531 307.269531 L 167.933594 307.269531 C 167.933594 310.160156 169.296875 312.492188 170.984375 312.492188 Z M 170.984375 312.492188 " fill-opacity="1" fill-rule="nonzero"/><path fill="#f0f4f9" d="M 185.433594 138.40625 L 178.691406 146.597656 L 157.175781 296.421875 L 224.53125 296.421875 L 203.015625 146.597656 L 196.273438 138.40625 L 190.8125 138.644531 Z M 185.433594 138.40625 " fill-opacity="0.69" fill-rule="evenodd"/><path fill="#dde3ea" d="M 188.484375 135.671875 L 185.59375 143.949219 L 176.203125 296.421875 L 205.503906 296.421875 L 196.113281 143.949219 L 193.222656 135.671875 L 190.8125 135.914062 Z M 188.484375 135.671875 " fill-opacity="1" fill-rule="evenodd"/><path fill="#fa5814" d="M 190.894531 176.886719 L 190.734375 176.964844 L 190.734375 176.886719 Z M 190.894531 176.886719 " fill-opacity="1" fill-rule="evenodd"/><path fill="#fa5814" d="M 212.167969 205.964844 C 212.25 212.554688 211.285156 218.5 211.367188 217.695312 C 211.445312 216.890625 209.199219 211.347656 209.199219 211.347656 C 208.316406 228.863281 190.8125 242.679688 190.8125 242.679688 L 190.8125 242.839844 L 190.8125 242.679688 C 190.8125 242.679688 173.3125 228.863281 172.429688 211.347656 C 172.429688 211.347656 170.179688 216.890625 170.261719 217.695312 C 170.339844 218.5 169.378906 212.472656 169.457031 205.964844 C 169.539062 199.378906 171.0625 192.230469 171.0625 192.230469 C 171.0625 192.230469 168.09375 195.601562 167.773438 196.40625 C 167.933594 195.441406 168.574219 190.542969 170.019531 185.480469 C 171.707031 179.617188 172.910156 178.410156 172.910156 178.410156 C 172.910156 178.410156 180.539062 174.234375 181.019531 173.589844 L 190.652344 173.351562 L 190.972656 173.351562 L 200.609375 173.589844 C 201.089844 174.152344 208.71875 178.410156 208.71875 178.410156 C 208.71875 178.410156 209.921875 179.617188 211.605469 185.480469 C 213.050781 190.542969 213.695312 195.441406 213.855469 196.40625 C 213.453125 195.601562 210.5625 192.230469 210.5625 192.230469 C 210.5625 192.230469 212.089844 199.378906 212.167969 205.964844 Z M 212.167969 205.964844 " fill-opacity="1" fill-rule="evenodd"/><path fill="#fdd333" d="M 205.265625 194.238281 C 205.265625 209.019531 190.492188 227.414062 190.492188 227.414062 C 190.492188 227.414062 175.71875 209.019531 175.71875 194.238281 C 175.71875 179.457031 182.304688 181.945312 190.492188 181.945312 C 198.679688 181.945312 205.265625 179.457031 205.265625 194.238281 Z M 205.265625 194.238281 " fill-opacity="1" fill-rule="evenodd"/><path fill="#fa5814" d="M 190.972656 176.886719 L 190.972656 176.964844 L 190.894531 176.886719 Z M 190.972656 176.886719 " fill-opacity="1" fill-rule="evenodd"/><path fill="#3d84f2" d="M 222.6875 125.46875 C 222.6875 125.46875 260.179688 150.292969 256.085938 193.273438 L 221.5625 177.769531 Z M 222.6875 125.46875 " fill-opacity="1" fill-rule="nonzero"/><path fill="#292561" d="M 221.644531 177.769531 L 214.175781 189.496094 C 213.535156 190.542969 212.410156 191.105469 211.207031 191.105469 L 170.902344 191.105469 C 169.699219 191.105469 168.496094 190.460938 167.851562 189.417969 L 160.386719 176.964844 Z M 221.644531 177.769531 " fill-opacity="1" fill-rule="nonzero"/><path fill="#e8505b" d="M 188.726562 39.429688 C 171.222656 40.636719 157.738281 55.335938 158.136719 72.851562 L 160.386719 177.6875 L 221.644531 177.6875 L 223.648438 72.769531 C 224.050781 53.570312 207.914062 38.144531 188.726562 39.429688 Z M 188.726562 39.429688 " fill-opacity="1" fill-rule="nonzero"/><path fill="#c8e1ff" d="M 188.726562 39.429688 C 171.222656 40.636719 157.738281 55.335938 158.136719 72.851562 L 160.386719 177.6875 L 221.644531 177.6875 L 223.648438 72.769531 C 224.050781 53.570312 207.914062 38.144531 188.726562 39.429688 Z M 188.726562 39.429688 " fill-opacity="1" fill-rule="nonzero"/><path fill="#3d84f2" d="M 159.261719 125.46875 C 159.261719 125.46875 121.769531 150.292969 125.863281 193.273438 L 160.386719 177.769531 Z M 159.261719 125.46875 " fill-opacity="1" fill-rule="nonzero"/><path fill="#ffffff" d="M 128.835938 189.417969 L 127.871094 189.898438 C 126.347656 158.167969 148.503906 136.957031 157.09375 129.96875 L 157.09375 131.816406 C 148.101562 139.449219 128.113281 159.691406 128.835938 189.417969 Z M 128.835938 189.417969 " fill-opacity="0.6" fill-rule="nonzero"/><g clip-path="url(#03e206face)"><path fill="#3d84f2" d="M 158.460938 69.234375 C 171.386719 57.910156 212.089844 58.148438 223.007812 67.386719 C 220.199219 26.496094 189.046875 11.234375 189.046875 11.234375 C 157.175781 33.324219 158.460938 69.234375 158.460938 69.234375 Z M 158.460938 69.234375 " fill-opacity="1" fill-rule="nonzero"/></g><path fill="#ffffff" d="M 160.867188 64.816406 C 161.511719 64.496094 162.152344 64.09375 162.875 63.773438 C 163.917969 53.488281 168.65625 30.59375 190.171875 14.527344 C 189.769531 14.285156 189.449219 14.046875 189.128906 13.886719 C 166.085938 30.515625 161.75 54.9375 160.867188 64.816406 Z M 160.867188 64.816406 " fill-opacity="0.6" fill-rule="nonzero"/><path fill="#3d84f2" d="M 193.0625 58.308594 C 180.9375 58.308594 170.261719 60.320312 162.875 63.773438 C 162.792969 64.09375 162.792969 64.496094 162.792969 64.816406 C 169.941406 60.800781 181.179688 58.390625 194.1875 58.308594 C 193.785156 58.308594 193.382812 58.308594 193.0625 58.308594 Z M 193.0625 58.308594 " fill-opacity="1" fill-rule="nonzero"/><path fill="#3d84f2" d="M 186.238281 137.601562 L 187.523438 195.683594 C 187.523438 197.613281 189.128906 199.136719 191.054688 199.058594 C 192.902344 199.058594 194.425781 197.53125 194.425781 195.683594 C 194.585938 183.875 194.988281 151.578125 195.070312 137.519531 C 195.070312 134.789062 192.660156 132.78125 190.011719 133.101562 C 187.84375 133.503906 186.238281 135.433594 186.238281 137.601562 Z M 186.238281 137.601562 " fill-opacity="1" fill-rule="nonzero"/><path fill="#92bfed" d="M 209.761719 94.058594 C 209.761719 94.683594 209.730469 95.304688 209.667969 95.925781 C 209.609375 96.546875 209.515625 97.164062 209.394531 97.773438 C 209.273438 98.386719 209.121094 98.988281 208.941406 99.585938 C 208.761719 100.183594 208.550781 100.769531 208.3125 101.34375 C 208.074219 101.921875 207.808594 102.484375 207.515625 103.035156 C 207.21875 103.585938 206.898438 104.117188 206.554688 104.636719 C 206.207031 105.15625 205.835938 105.65625 205.441406 106.136719 C 205.046875 106.621094 204.628906 107.082031 204.1875 107.523438 C 203.746094 107.964844 203.285156 108.382812 202.804688 108.777344 C 202.324219 109.171875 201.824219 109.542969 201.304688 109.890625 C 200.785156 110.238281 200.253906 110.558594 199.703125 110.851562 C 199.152344 111.144531 198.589844 111.410156 198.015625 111.648438 C 197.4375 111.886719 196.851562 112.097656 196.257812 112.277344 C 195.660156 112.460938 195.058594 112.609375 194.445312 112.734375 C 193.835938 112.855469 193.21875 112.945312 192.597656 113.007812 C 191.976562 113.066406 191.355469 113.097656 190.734375 113.097656 C 190.109375 113.097656 189.488281 113.066406 188.867188 113.007812 C 188.25 112.945312 187.632812 112.855469 187.019531 112.734375 C 186.410156 112.609375 185.804688 112.460938 185.210938 112.277344 C 184.613281 112.097656 184.027344 111.886719 183.453125 111.648438 C 182.875 111.410156 182.3125 111.144531 181.765625 110.851562 C 181.214844 110.558594 180.679688 110.238281 180.164062 109.890625 C 179.644531 109.542969 179.144531 109.171875 178.664062 108.777344 C 178.179688 108.382812 177.71875 107.964844 177.277344 107.523438 C 176.839844 107.082031 176.421875 106.621094 176.023438 106.136719 C 175.628906 105.65625 175.257812 105.15625 174.914062 104.636719 C 174.566406 104.117188 174.246094 103.585938 173.953125 103.035156 C 173.660156 102.484375 173.394531 101.921875 173.15625 101.34375 C 172.914062 100.769531 172.707031 100.183594 172.527344 99.585938 C 172.34375 98.988281 172.191406 98.386719 172.070312 97.773438 C 171.949219 97.164062 171.859375 96.546875 171.796875 95.925781 C 171.738281 95.304688 171.707031 94.683594 171.707031 94.058594 C 171.707031 93.4375 171.738281 92.8125 171.796875 92.191406 C 171.859375 91.574219 171.949219 90.957031 172.070312 90.34375 C 172.191406 89.734375 172.34375 89.128906 172.527344 88.53125 C 172.707031 87.9375 172.914062 87.347656 173.15625 86.773438 C 173.394531 86.195312 173.660156 85.632812 173.953125 85.085938 C 174.246094 84.535156 174.566406 84 174.914062 83.480469 C 175.257812 82.964844 175.628906 82.464844 176.023438 81.980469 C 176.421875 81.5 176.839844 81.039062 177.277344 80.597656 C 177.71875 80.15625 178.179688 79.738281 178.664062 79.339844 C 179.144531 78.945312 179.644531 78.574219 180.164062 78.230469 C 180.679688 77.882812 181.214844 77.5625 181.765625 77.269531 C 182.3125 76.972656 182.875 76.707031 183.453125 76.46875 C 184.027344 76.230469 184.613281 76.019531 185.210938 75.839844 C 185.804688 75.660156 186.410156 75.507812 187.019531 75.386719 C 187.632812 75.265625 188.25 75.171875 188.867188 75.113281 C 189.488281 75.050781 190.109375 75.019531 190.734375 75.019531 C 191.355469 75.019531 191.976562 75.050781 192.597656 75.113281 C 193.21875 75.171875 193.835938 75.265625 194.445312 75.386719 C 195.058594 75.507812 195.660156 75.660156 196.257812 75.839844 C 196.851562 76.019531 197.4375 76.230469 198.015625 76.46875 C 198.589844 76.707031 199.152344 76.972656 199.703125 77.269531 C 200.253906 77.5625 200.785156 77.882812 201.304688 78.230469 C 201.824219 78.574219 202.324219 78.945312 202.804688 79.339844 C 203.285156 79.738281 203.746094 80.15625 204.1875 80.597656 C 204.628906 81.039062 205.046875 81.5 205.441406 81.980469 C 205.835938 82.464844 206.207031 82.964844 206.554688 83.480469 C 206.898438 84 207.21875 84.535156 207.515625 85.085938 C 207.808594 85.632812 208.074219 86.195312 208.3125 86.773438 C 208.550781 87.347656 208.761719 87.9375 208.941406 88.53125 C 209.121094 89.128906 209.273438 89.734375 209.394531 90.34375 C 209.515625 90.957031 209.609375 91.574219 209.667969 92.191406 C 209.730469 92.8125 209.761719 93.4375 209.761719 94.058594 Z M 209.761719 94.058594 " fill-opacity="1" fill-rule="nonzero"/><path fill="#ffffff" d="M 206.46875 94.058594 C 206.46875 95.09375 206.367188 96.117188 206.167969 97.132812 C 205.964844 98.144531 205.667969 99.128906 205.269531 100.085938 C 204.875 101.039062 204.390625 101.949219 203.816406 102.808594 C 203.242188 103.667969 202.589844 104.460938 201.859375 105.191406 C 201.128906 105.925781 200.335938 106.578125 199.476562 107.152344 C 198.617188 107.726562 197.710938 108.210938 196.753906 108.605469 C 195.800781 109.003906 194.816406 109.300781 193.804688 109.503906 C 192.789062 109.703125 191.765625 109.804688 190.734375 109.804688 C 189.699219 109.804688 188.675781 109.703125 187.664062 109.503906 C 186.648438 109.300781 185.667969 109.003906 184.710938 108.605469 C 183.757812 108.210938 182.851562 107.726562 181.992188 107.152344 C 181.132812 106.578125 180.335938 105.925781 179.605469 105.191406 C 178.875 104.460938 178.222656 103.667969 177.648438 102.808594 C 177.074219 101.949219 176.589844 101.039062 176.195312 100.085938 C 175.800781 99.128906 175.5 98.144531 175.300781 97.132812 C 175.097656 96.117188 174.996094 95.09375 174.996094 94.058594 C 174.996094 93.027344 175.097656 92 175.300781 90.988281 C 175.5 89.972656 175.800781 88.988281 176.195312 88.035156 C 176.589844 87.078125 177.074219 86.171875 177.648438 85.3125 C 178.222656 84.453125 178.875 83.65625 179.605469 82.925781 C 180.335938 82.195312 181.132812 81.542969 181.992188 80.96875 C 182.851562 80.394531 183.757812 79.90625 184.710938 79.511719 C 185.667969 79.117188 186.648438 78.816406 187.664062 78.617188 C 188.675781 78.414062 189.699219 78.3125 190.734375 78.3125 C 191.765625 78.3125 192.789062 78.414062 193.804688 78.617188 C 194.816406 78.816406 195.800781 79.117188 196.753906 79.511719 C 197.710938 79.90625 198.617188 80.394531 199.476562 80.96875 C 200.335938 81.542969 201.128906 82.195312 201.859375 82.925781 C 202.589844 83.65625 203.242188 84.453125 203.816406 85.3125 C 204.390625 86.171875 204.875 87.078125 205.269531 88.035156 C 205.667969 88.988281 205.964844 89.972656 206.167969 90.988281 C 206.367188 92 206.46875 93.027344 206.46875 94.058594 Z M 206.46875 94.058594 " fill-opacity="1" fill-rule="nonzero"/><path fill="#f0f4f9" d="M 315.65625 296.421875 L 315.65625 290.71875 C 315.65625 285.660156 311.5625 281.480469 306.421875 281.480469 C 303.292969 281.480469 300.480469 283.089844 298.796875 285.5 C 297.109375 282.445312 293.816406 280.355469 290.042969 280.355469 C 287.476562 280.355469 285.148438 281.320312 283.382812 282.847656 C 281.054688 279.792969 277.441406 277.867188 273.34375 277.867188 C 268.769531 277.867188 264.835938 280.277344 262.585938 283.890625 C 260.660156 281.078125 257.367188 279.230469 253.675781 279.230469 C 251.105469 279.230469 248.699219 280.117188 246.851562 281.640625 C 245.808594 280.679688 244.523438 280.035156 243.078125 279.714844 C 241.152344 275.375 236.734375 272.324219 231.679688 272.324219 C 226.859375 272.324219 222.765625 275.054688 220.679688 278.992188 C 219.074219 277.945312 217.066406 277.382812 214.980469 277.382812 C 213.773438 277.382812 212.570312 277.625 211.445312 277.945312 C 211.367188 273.207031 207.511719 269.429688 202.777344 269.429688 C 199.324219 269.429688 196.351562 271.4375 194.988281 274.332031 C 193.464844 273.367188 191.695312 272.886719 189.851562 272.886719 C 187.121094 272.886719 184.632812 274.011719 182.867188 275.777344 C 182.703125 275.695312 182.542969 275.617188 182.382812 275.457031 C 182.464844 274.972656 182.542969 274.492188 182.542969 274.011719 C 182.542969 270.316406 179.574219 267.34375 175.882812 267.34375 C 174.757812 267.34375 173.632812 267.664062 172.75 268.144531 C 171.867188 263.324219 167.691406 259.710938 162.632812 259.710938 C 158.378906 259.710938 154.6875 262.28125 153.160156 265.976562 C 151.714844 265.09375 150.03125 264.609375 148.183594 264.609375 C 146.738281 264.609375 145.292969 264.933594 144.089844 265.574219 C 144.167969 265.253906 144.167969 264.933594 144.167969 264.609375 C 144.167969 261.636719 141.761719 259.148438 138.710938 259.148438 C 135.820312 259.148438 133.492188 261.398438 133.25 264.210938 C 132.207031 263.808594 131.164062 263.648438 130.039062 263.648438 C 127.871094 263.648438 125.945312 264.371094 124.339844 265.574219 C 123.457031 261.398438 119.683594 258.183594 115.1875 258.183594 C 110.691406 258.183594 106.917969 261.398438 106.035156 265.65625 C 104.667969 265.09375 103.0625 264.773438 101.457031 264.773438 C 96.722656 264.773438 92.625 267.503906 90.699219 271.519531 C 88.773438 269.511719 86.125 268.304688 83.152344 268.304688 C 77.371094 268.304688 72.714844 272.964844 72.714844 278.75 C 72.714844 279.714844 72.875 280.679688 73.117188 281.5625 C 68.863281 284.050781 66.050781 288.710938 66.050781 294.011719 C 66.050781 294.816406 66.132812 295.621094 66.292969 296.421875 Z M 315.65625 296.421875 " fill-opacity="1" fill-rule="evenodd"/><path fill="#dde3ea" d="M 315.65625 290.71875 L 315.65625 296.421875 L 315.171875 296.421875 C 313.96875 292.808594 310.515625 290.15625 306.421875 290.15625 C 303.292969 290.15625 300.480469 291.765625 298.796875 294.175781 C 297.109375 291.121094 293.816406 289.03125 290.042969 289.03125 C 287.476562 289.03125 285.148438 289.996094 283.382812 291.523438 C 281.054688 288.46875 277.441406 286.542969 273.34375 286.542969 C 268.769531 286.542969 264.835938 288.953125 262.585938 292.566406 C 260.660156 289.757812 257.367188 287.90625 253.675781 287.90625 C 251.105469 287.90625 248.699219 288.792969 246.851562 290.316406 C 245.808594 289.355469 244.523438 288.710938 243.078125 288.390625 C 241.152344 284.050781 236.734375 281 231.679688 281 C 226.859375 281 222.765625 283.730469 220.679688 287.667969 C 219.074219 286.621094 217.066406 286.058594 214.980469 286.058594 C 213.773438 286.058594 212.570312 286.300781 211.445312 286.621094 C 211.367188 281.882812 207.511719 278.105469 202.777344 278.105469 C 199.324219 278.105469 196.433594 280.117188 194.988281 283.007812 C 193.464844 282.042969 191.695312 281.5625 189.851562 281.5625 C 187.121094 281.5625 184.632812 282.6875 182.867188 284.453125 C 182.703125 284.375 182.542969 284.292969 182.382812 284.132812 C 182.464844 283.652344 182.542969 283.167969 182.542969 282.6875 C 182.542969 278.992188 179.574219 276.019531 175.882812 276.019531 C 174.757812 276.019531 173.632812 276.339844 172.75 276.820312 C 171.867188 272 167.691406 268.386719 162.632812 268.386719 C 158.378906 268.386719 154.6875 270.957031 153.160156 274.734375 C 151.714844 273.847656 150.03125 273.367188 148.183594 273.367188 C 146.738281 273.367188 145.292969 273.6875 144.089844 274.332031 C 144.167969 274.011719 144.167969 273.6875 144.167969 273.367188 C 144.167969 270.316406 141.761719 267.90625 138.710938 267.90625 C 135.820312 267.90625 133.492188 270.152344 133.25 272.964844 C 132.207031 272.5625 131.164062 272.402344 130.039062 272.402344 C 127.871094 272.402344 125.945312 273.125 124.339844 274.332031 C 123.457031 270.074219 119.683594 266.941406 115.1875 266.941406 C 110.691406 266.941406 106.917969 270.152344 106.035156 274.410156 C 104.589844 273.847656 103.0625 273.527344 101.457031 273.527344 C 96.722656 273.527344 92.625 276.257812 90.699219 280.277344 C 88.773438 278.269531 86.125 277.0625 83.152344 277.0625 C 77.371094 277.0625 72.714844 281.722656 72.714844 287.507812 C 72.714844 288.46875 72.875 289.433594 73.117188 290.316406 C 70.710938 291.765625 68.703125 293.933594 67.496094 296.503906 L 66.292969 296.503906 C 66.132812 295.699219 66.050781 294.976562 66.050781 294.09375 C 66.050781 288.792969 68.863281 284.210938 73.117188 281.640625 C 72.875 280.757812 72.714844 279.792969 72.714844 278.832031 C 72.714844 273.046875 77.371094 268.386719 83.152344 268.386719 C 86.125 268.386719 88.773438 269.589844 90.699219 271.601562 C 92.625 267.582031 96.722656 264.851562 101.457031 264.851562 C 103.0625 264.851562 104.589844 265.171875 106.035156 265.734375 C 106.917969 261.476562 110.691406 258.265625 115.1875 258.265625 C 119.683594 258.265625 123.457031 261.398438 124.339844 265.65625 C 125.945312 264.449219 127.871094 263.726562 130.039062 263.726562 C 131.164062 263.726562 132.285156 263.96875 133.25 264.289062 C 133.492188 261.476562 135.820312 259.230469 138.710938 259.230469 C 141.679688 259.230469 144.167969 261.636719 144.167969 264.691406 C 144.167969 265.011719 144.167969 265.335938 144.089844 265.65625 C 145.371094 265.09375 146.738281 264.691406 148.183594 264.691406 C 150.03125 264.691406 151.714844 265.171875 153.160156 266.058594 C 154.6875 262.363281 158.378906 259.710938 162.632812 259.710938 C 167.691406 259.710938 171.867188 263.324219 172.75 268.144531 C 173.714844 267.664062 174.757812 267.34375 175.882812 267.34375 C 179.574219 267.34375 182.542969 270.316406 182.542969 274.011719 C 182.542969 274.492188 182.464844 274.972656 182.382812 275.457031 C 182.542969 275.535156 182.703125 275.617188 182.867188 275.777344 C 184.632812 273.929688 187.121094 272.886719 189.851562 272.886719 C 191.695312 272.886719 193.464844 273.449219 194.988281 274.332031 C 196.351562 271.4375 199.324219 269.429688 202.777344 269.429688 C 207.511719 269.429688 211.367188 273.207031 211.445312 277.945312 C 212.570312 277.546875 213.773438 277.382812 214.980469 277.382812 C 217.066406 277.382812 218.992188 277.945312 220.679688 278.992188 C 222.765625 275.054688 226.941406 272.324219 231.679688 272.324219 C 236.734375 272.324219 241.152344 275.375 243.078125 279.714844 C 244.523438 280.035156 245.808594 280.679688 246.851562 281.640625 C 248.699219 280.117188 251.105469 279.230469 253.675781 279.230469 C 257.367188 279.230469 260.582031 281.078125 262.585938 283.890625 C 264.835938 280.277344 268.851562 277.867188 273.34375 277.867188 C 277.441406 277.867188 281.054688 279.792969 283.382812 282.847656 C 285.148438 281.320312 287.476562 280.355469 290.042969 280.355469 C 293.816406 280.355469 297.109375 282.445312 298.796875 285.5 C 300.480469 283.089844 303.210938 281.480469 306.421875 281.480469 C 311.5625 281.480469 315.65625 285.578125 315.65625 290.71875 Z M 315.65625 290.71875 " fill-opacity="1" fill-rule="evenodd"/><path fill="#c8e1ff" d="M 106.515625 242.597656 L 8.085938 242.597656 C 4.957031 242.597656 2.46875 240.027344 2.46875 236.976562 L 2.46875 183.472656 C 2.46875 180.339844 5.035156 177.847656 8.085938 177.847656 L 106.515625 177.847656 C 109.648438 177.847656 112.136719 180.417969 112.136719 183.472656 L 112.136719 236.976562 C 112.136719 240.027344 109.566406 242.597656 106.515625 242.597656 Z M 106.515625 242.597656 " fill-opacity="1" fill-rule="nonzero"/><path fill="#ffffff" d="M 8.085938 179.617188 C 6 179.617188 4.3125 181.304688 4.3125 183.390625 L 4.3125 236.894531 C 4.3125 238.984375 6 240.671875 8.085938 240.671875 L 106.515625 240.671875 C 108.601562 240.671875 110.289062 238.984375 110.289062 236.894531 L 110.289062 183.390625 C 110.289062 181.304688 108.601562 179.617188 106.515625 179.617188 Z M 8.085938 179.617188 " fill-opacity="1" fill-rule="nonzero"/><path fill="#c8e1ff" d="M 78.976562 192.066406 L 76.570312 192.066406 C 75.445312 192.066406 74.5625 191.183594 74.5625 190.058594 L 74.5625 188.292969 C 74.5625 187.167969 75.445312 186.285156 76.570312 186.285156 L 78.976562 186.285156 C 80.101562 186.285156 80.984375 187.167969 80.984375 188.292969 L 80.984375 190.058594 C 80.984375 191.105469 80.101562 192.066406 78.976562 192.066406 Z M 78.976562 192.066406 " fill-opacity="1" fill-rule="nonzero"/><path fill="#c8e1ff" d="M 90.621094 192.066406 L 88.210938 192.066406 C 87.085938 192.066406 86.203125 191.183594 86.203125 190.058594 L 86.203125 188.292969 C 86.203125 187.167969 87.085938 186.285156 88.210938 186.285156 L 90.621094 186.285156 C 91.742188 186.285156 92.625 187.167969 92.625 188.292969 L 92.625 190.058594 C 92.625 191.105469 91.742188 192.066406 90.621094 192.066406 Z M 90.621094 192.066406 " fill-opacity="1" fill-rule="nonzero"/><path fill="#c8e1ff" d="M 102.179688 192.066406 L 99.773438 192.066406 C 98.648438 192.066406 97.765625 191.183594 97.765625 190.058594 L 97.765625 188.292969 C 97.765625 187.167969 98.648438 186.285156 99.773438 186.285156 L 102.179688 186.285156 C 103.304688 186.285156 104.1875 187.167969 104.1875 188.292969 L 104.1875 190.058594 C 104.1875 191.105469 103.304688 192.066406 102.179688 192.066406 Z M 102.179688 192.066406 " fill-opacity="1" fill-rule="nonzero"/><path fill="#c8e1ff" d="M 13.226562 210.144531 L 27.757812 210.144531 L 27.757812 234.164062 L 13.226562 234.164062 Z M 13.226562 210.144531 " fill-opacity="1" fill-rule="nonzero"/><path fill="#c8e1ff" d="M 53.367188 212.152344 L 67.898438 212.152344 L 67.898438 234.246094 L 53.367188 234.246094 Z M 53.367188 212.152344 " fill-opacity="1" fill-rule="nonzero"/><path fill="#c8e1ff" d="M 76.570312 202.351562 L 91.101562 202.351562 L 91.101562 234.246094 L 76.570312 234.246094 Z M 76.570312 202.351562 " fill-opacity="1" fill-rule="nonzero"/><path fill="#c8e1ff" d="M 32.894531 219.625 L 47.425781 219.625 L 47.425781 234.164062 L 32.894531 234.164062 Z M 32.894531 219.625 " fill-opacity="1" fill-rule="nonzero"/><g clip-path="url(#25306c11de)"><path fill="#464ae4" d="M 319.027344 318.113281 C 319.027344 318.675781 319.1875 319.078125 319.269531 319.398438 C 319.347656 319.640625 319.507812 319.722656 319.75 319.722656 L 342.230469 319.722656 C 342.550781 319.722656 342.792969 319.398438 342.710938 319.160156 L 341.828125 315.542969 L 339.097656 303.816406 L 330.1875 304.777344 C 330.1875 304.777344 330.828125 310.082031 323.84375 312.007812 C 319.429688 313.214844 318.867188 316.1875 319.027344 318.113281 Z M 319.027344 318.113281 " fill-opacity="1" fill-rule="nonzero"/></g><path fill="#2624bd" d="M 327.457031 310.160156 C 330.425781 307.832031 330.027344 304.699219 330.027344 304.699219 L 338.9375 303.734375 L 340.460938 310.082031 L 327.457031 310.082031 Z M 327.457031 310.160156 " fill-opacity="1" fill-rule="nonzero"/><g clip-path="url(#7fd7c21a81)"><path fill="#464ae4" d="M 360.855469 318.113281 C 360.855469 318.675781 361.015625 319.078125 361.097656 319.398438 C 361.175781 319.640625 361.335938 319.722656 361.578125 319.722656 L 384.058594 319.722656 C 384.378906 319.722656 384.617188 319.398438 384.539062 319.160156 L 383.65625 315.542969 L 380.925781 303.816406 L 372.015625 304.777344 C 372.015625 304.777344 372.65625 310.082031 365.671875 312.007812 C 361.335938 313.214844 360.773438 316.1875 360.855469 318.113281 Z M 360.855469 318.113281 " fill-opacity="1" fill-rule="nonzero"/></g><path fill="#2624bd" d="M 369.363281 310.160156 C 372.335938 307.832031 371.933594 304.699219 371.933594 304.699219 L 380.84375 303.734375 L 382.371094 310.082031 L 369.363281 310.082031 Z M 369.363281 310.160156 " fill-opacity="1" fill-rule="nonzero"/><path fill="#191937" d="M 353.226562 307.75 C 354.273438 303.976562 349.695312 286.222656 346.726562 273.367188 C 341.828125 252.320312 357.324219 227.015625 357.324219 227.015625 L 352.023438 209.742188 L 350.175781 180.179688 L 332.195312 196.808594 C 332.195312 196.808594 324.726562 234.246094 323.441406 252.800781 C 322.238281 270.878906 327.054688 283.488281 317.902344 307.671875 L 353.226562 307.671875 Z M 353.226562 307.75 " fill-opacity="1" fill-rule="nonzero"/><path fill="#292561" d="M 358.769531 307.75 L 389.835938 307.75 C 401.71875 294.65625 381.40625 269.832031 375.949219 258.90625 C 372.738281 252.480469 372.414062 251.835938 376.832031 230.226562 C 381.167969 208.699219 377.957031 196.40625 377.957031 196.40625 L 341.265625 190.382812 L 352.34375 260.191406 C 355.957031 276.421875 361.015625 285.660156 358.769531 307.75 Z M 358.769531 307.75 " fill-opacity="1" fill-rule="nonzero"/><path fill="#ffd1c4" d="M 304.898438 120.488281 C 304.898438 120.488281 298.957031 102.171875 290.925781 109.886719 C 282.898438 117.597656 300.078125 125.871094 300.078125 125.871094 Z M 304.898438 120.488281 " fill-opacity="1" fill-rule="nonzero"/><path fill="#ff9a05" d="M 344.957031 130.453125 L 343.914062 135.832031 L 340.703125 151.738281 C 340.703125 151.738281 334.121094 153.425781 326.976562 154.710938 C 320.714844 155.835938 314.050781 156.558594 311.078125 155.515625 C 306.019531 153.75 296.144531 125.230469 296.144531 125.230469 L 305.460938 118.964844 L 318.546875 141.296875 C 332.835938 133.421875 344.957031 130.453125 344.957031 130.453125 Z M 344.957031 130.453125 " fill-opacity="1" fill-rule="nonzero"/><path fill="#ec8400" d="M 343.835938 135.832031 L 340.625 151.738281 C 340.625 151.738281 334.039062 153.425781 326.894531 154.710938 C 327.136719 154.148438 327.699219 153.75 328.339844 153.507812 C 329.0625 153.265625 329.867188 153.1875 330.667969 152.945312 C 331.871094 152.464844 332.753906 151.417969 333.238281 150.214844 C 333.800781 149.089844 334.039062 147.804688 334.441406 146.519531 C 335.164062 144.910156 335.644531 143.386719 336.609375 141.859375 C 337.410156 140.492188 338.375 139.289062 339.417969 138.164062 C 340.222656 137.28125 341.667969 135.59375 342.871094 135.511719 C 343.273438 135.59375 343.59375 135.671875 343.835938 135.832031 Z M 343.835938 135.832031 " fill-opacity="1" fill-rule="nonzero"/><path fill="#ff9a05" d="M 377.957031 196.40625 C 377.957031 197.691406 375.386719 198.734375 371.453125 199.460938 C 358.847656 201.707031 332.195312 200.664062 332.195312 196.40625 C 332.195312 196.40625 331.632812 136.558594 344.476562 130.691406 C 349.695312 128.363281 358.527344 125.953125 367.921875 131.496094 C 368.320312 131.738281 368.722656 132.058594 369.125 132.378906 C 380.523438 142.824219 377.957031 196.40625 377.957031 196.40625 Z M 377.957031 196.40625 " fill-opacity="1" fill-rule="nonzero"/><path fill="#ec8400" d="M 377.957031 196.40625 C 377.957031 197.691406 375.386719 198.734375 371.453125 199.460938 C 370.808594 197.691406 370.890625 195.683594 370.328125 193.835938 C 369.285156 190.460938 366.234375 188.132812 363.023438 186.6875 C 359.890625 185.160156 356.4375 184.277344 353.46875 182.347656 C 350.578125 180.417969 348.089844 177.125 348.570312 173.671875 C 348.894531 171.101562 350.738281 168.933594 352.988281 167.726562 C 355.234375 166.523438 357.882812 166.121094 360.375 166.121094 C 361.980469 166.121094 363.664062 166.28125 365.269531 165.878906 C 366.875 165.476562 368.402344 164.433594 368.804688 162.90625 C 369.527344 160.335938 367.117188 158.007812 365.351562 155.996094 C 363.90625 154.3125 362.78125 152.300781 362.140625 150.132812 C 360.933594 146.277344 360.933594 142.019531 362.378906 138.242188 C 363.34375 135.753906 366.152344 133.261719 369.042969 132.539062 C 380.523438 142.824219 377.957031 196.40625 377.957031 196.40625 Z M 377.957031 196.40625 " fill-opacity="1" fill-rule="nonzero"/><path fill="#ffd1c4" d="M 351.863281 128.765625 L 351.863281 124.507812 C 351.863281 124.507812 343.753906 127.15625 342.070312 123.382812 C 340.460938 119.6875 339.339844 100.246094 353.066406 102.09375 C 366.875 103.941406 359.570312 121.613281 359.570312 121.613281 L 359.570312 128.683594 C 359.652344 131.175781 351.863281 131.175781 351.863281 128.765625 Z M 351.863281 128.765625 " fill-opacity="1" fill-rule="nonzero"/><path fill="#7c3a3a" d="M 359.652344 123.460938 C 359.652344 123.460938 355.394531 119.847656 356.359375 115.832031 C 357.324219 111.8125 354.191406 110.367188 353.628906 111.972656 C 352.988281 113.660156 351.140625 110.207031 351.382812 108.601562 C 351.621094 106.992188 337.972656 111.652344 337.332031 103.296875 C 336.691406 95.023438 348.007812 100.808594 350.980469 98.71875 C 353.949219 96.628906 362.621094 96.789062 365.269531 105.226562 C 367.921875 113.660156 359.652344 123.460938 359.652344 123.460938 Z M 359.652344 123.460938 " fill-opacity="1" fill-rule="nonzero"/><path fill="#292561" d="M 354.914062 173.75 L 300.640625 173.75 C 299.839844 173.75 299.117188 173.269531 298.796875 172.546875 L 289.882812 152.703125 C 289.320312 151.339844 290.285156 149.8125 291.730469 149.8125 L 322.15625 149.8125 C 322.960938 149.8125 323.683594 150.292969 324.003906 151.015625 L 332.515625 169.976562 L 351.140625 169.976562 C 353.148438 169.976562 354.914062 171.664062 354.914062 173.75 Z M 354.914062 173.75 " fill-opacity="1" fill-rule="nonzero"/><path fill="#ffd1c4" d="M 352.105469 168.851562 C 352.105469 168.851562 342.230469 161.539062 340.300781 171.582031 C 338.777344 179.054688 353.550781 174.074219 353.550781 174.074219 Z M 352.105469 168.851562 " fill-opacity="1" fill-rule="nonzero"/><path fill="#ff9a05" d="M 395.296875 175.359375 C 389.597656 185.402344 351.140625 175.117188 351.140625 175.117188 L 352.265625 167.96875 L 382.691406 168.449219 L 369.363281 155.433594 C 364.789062 150.9375 362.300781 144.671875 362.863281 138.324219 C 363.101562 135.191406 364.148438 132.21875 366.554688 130.691406 C 373.941406 133.421875 402.039062 163.386719 395.296875 175.359375 Z M 395.296875 175.359375 " fill-opacity="1" fill-rule="nonzero"/><path fill="#48dbc5" d="M 306.578125 62.222656 C 307.210938 62.859375 307.777344 63.546875 308.277344 64.292969 C 308.773438 65.039062 309.195312 65.824219 309.539062 66.65625 C 309.878906 67.484375 310.140625 68.335938 310.3125 69.214844 C 310.488281 70.097656 310.574219 70.984375 310.578125 71.878906 C 310.578125 72.777344 310.488281 73.664062 310.3125 74.546875 C 310.140625 75.425781 309.878906 76.277344 309.539062 77.105469 C 309.195312 77.933594 308.773438 78.722656 308.277344 79.46875 C 307.777344 80.214844 307.210938 80.902344 306.578125 81.539062 C 305.945312 82.171875 305.253906 82.738281 304.511719 83.234375 C 303.765625 83.734375 302.980469 84.15625 302.152344 84.5 C 301.324219 84.839844 300.46875 85.101562 299.589844 85.277344 C 298.710938 85.449219 297.824219 85.539062 296.929688 85.539062 C 296.03125 85.539062 295.144531 85.449219 294.265625 85.277344 C 293.386719 85.101562 292.53125 84.839844 291.707031 84.5 C 290.878906 84.15625 290.089844 83.734375 289.34375 83.238281 C 288.601562 82.738281 287.910156 82.171875 287.277344 81.539062 C 286.644531 80.902344 286.078125 80.214844 285.578125 79.46875 C 285.082031 78.722656 284.660156 77.9375 284.320312 77.109375 C 283.976562 76.277344 283.714844 75.425781 283.542969 74.546875 C 283.367188 73.667969 283.28125 72.777344 283.28125 71.882812 C 283.28125 70.984375 283.367188 70.097656 283.542969 69.21875 C 283.714844 68.335938 283.976562 67.484375 284.320312 66.65625 C 284.660156 65.828125 285.082031 65.039062 285.578125 64.292969 C 286.078125 63.546875 286.644531 62.859375 287.277344 62.222656 C 287.910156 61.589844 288.601562 61.023438 289.34375 60.527344 C 290.089844 60.027344 290.875 59.605469 291.703125 59.261719 C 292.53125 58.921875 293.386719 58.660156 294.265625 58.488281 C 295.144531 58.3125 296.03125 58.222656 296.925781 58.222656 C 297.824219 58.222656 298.710938 58.3125 299.589844 58.488281 C 300.46875 58.660156 301.324219 58.921875 302.152344 59.261719 C 302.980469 59.605469 303.765625 60.027344 304.511719 60.527344 C 305.253906 61.023438 305.945312 61.589844 306.578125 62.222656 Z M 306.578125 62.222656 " fill-opacity="1" fill-rule="nonzero"/><path fill="#ffffff" d="M 293.738281 78.957031 C 293.65625 78.957031 293.65625 78.957031 293.738281 78.957031 C 293.417969 78.957031 293.175781 78.796875 293.015625 78.636719 L 289.722656 74.859375 C 289.320312 74.457031 289.402344 73.816406 289.804688 73.414062 C 290.207031 73.011719 290.847656 73.09375 291.25 73.492188 L 293.816406 76.464844 L 303.453125 66.988281 C 303.851562 66.585938 304.496094 66.585938 304.898438 66.988281 C 305.296875 67.386719 305.296875 68.03125 304.898438 68.433594 L 294.460938 78.636719 C 294.21875 78.796875 293.976562 78.957031 293.738281 78.957031 Z M 293.738281 78.957031 " fill-opacity="1" fill-rule="nonzero"/><g fill="#ffffff" fill-opacity="1"><g transform="translate(251.603265, 30.101137)"><g><path d="M 7.453125 0.9375 C 7.265625 0.9375 7.097656 0.898438 6.953125 0.828125 C 6.753906 0.722656 6.550781 0.582031 6.34375 0.40625 C 6.144531 0.226562 5.953125 0.0234375 5.765625 -0.203125 C 5.585938 -0.429688 5.425781 -0.671875 5.28125 -0.921875 C 5.132812 -1.171875 5.015625 -1.410156 4.921875 -1.640625 C 4.648438 -1.492188 4.429688 -1.410156 4.265625 -1.390625 C 4.128906 -1.222656 3.957031 -1.023438 3.75 -0.796875 C 3.539062 -0.578125 3.304688 -0.363281 3.046875 -0.15625 C 2.796875 0.0507812 2.523438 0.21875 2.234375 0.34375 C 1.953125 0.476562 1.664062 0.546875 1.375 0.546875 C 1 0.546875 0.703125 0.453125 0.484375 0.265625 C 0.265625 0.078125 0.15625 -0.222656 0.15625 -0.640625 C 0.15625 -0.859375 0.207031 -1.078125 0.3125 -1.296875 C 0.425781 -1.523438 0.578125 -1.726562 0.765625 -1.90625 C 0.953125 -2.082031 1.160156 -2.21875 1.390625 -2.3125 C 1.660156 -2.425781 1.945312 -2.484375 2.25 -2.484375 C 2.414062 -2.484375 2.546875 -2.4375 2.640625 -2.34375 C 2.742188 -2.257812 2.796875 -2.148438 2.796875 -2.015625 C 2.796875 -1.953125 2.785156 -1.910156 2.765625 -1.890625 C 2.765625 -1.890625 2.757812 -1.890625 2.75 -1.890625 C 2.738281 -1.890625 2.71875 -1.90625 2.6875 -1.9375 C 2.613281 -2.09375 2.535156 -2.191406 2.453125 -2.234375 C 2.378906 -2.285156 2.273438 -2.3125 2.140625 -2.3125 C 1.921875 -2.3125 1.710938 -2.257812 1.515625 -2.15625 C 1.316406 -2.050781 1.132812 -1.910156 0.96875 -1.734375 C 0.8125 -1.566406 0.6875 -1.375 0.59375 -1.15625 C 0.5 -0.945312 0.453125 -0.734375 0.453125 -0.515625 C 0.453125 0.00390625 0.742188 0.300781 1.328125 0.375 C 1.546875 0.382812 1.835938 0.289062 2.203125 0.09375 C 2.742188 -0.21875 3.316406 -0.75 3.921875 -1.5 C 3.816406 -1.601562 3.765625 -1.75 3.765625 -1.9375 C 3.765625 -2.144531 3.832031 -2.332031 3.96875 -2.5 C 4.125 -2.675781 4.328125 -2.765625 4.578125 -2.765625 C 4.648438 -2.765625 4.71875 -2.757812 4.78125 -2.75 C 4.914062 -2.96875 5.039062 -3.191406 5.15625 -3.421875 C 5.28125 -3.648438 5.398438 -3.878906 5.515625 -4.109375 C 5.722656 -4.546875 5.828125 -4.800781 5.828125 -4.875 C 5.828125 -4.882812 5.820312 -4.890625 5.8125 -4.890625 C 5.800781 -4.898438 5.742188 -4.878906 5.640625 -4.828125 C 5.546875 -4.785156 5.429688 -4.726562 5.296875 -4.65625 C 5.160156 -4.59375 5.035156 -4.53125 4.921875 -4.46875 C 4.804688 -4.40625 4.722656 -4.363281 4.671875 -4.34375 C 4.515625 -4.238281 4.351562 -4.101562 4.1875 -3.9375 C 3.976562 -3.71875 3.875 -3.550781 3.875 -3.4375 C 3.875 -3.382812 3.894531 -3.34375 3.9375 -3.3125 C 4.039062 -3.238281 4.191406 -3.203125 4.390625 -3.203125 C 4.410156 -3.191406 4.421875 -3.179688 4.421875 -3.171875 C 4.421875 -3.148438 4.34375 -3.128906 4.1875 -3.109375 C 4.039062 -3.078125 3.921875 -3.066406 3.828125 -3.078125 C 3.710938 -3.109375 3.65625 -3.179688 3.65625 -3.296875 C 3.65625 -3.460938 3.757812 -3.660156 3.96875 -3.890625 C 4.175781 -4.128906 4.398438 -4.316406 4.640625 -4.453125 C 5.359375 -4.835938 5.8125 -5.03125 6 -5.03125 C 6.050781 -5.03125 6.09375 -5.019531 6.125 -5 C 6.144531 -4.988281 6.15625 -4.960938 6.15625 -4.921875 C 6.15625 -4.628906 5.75 -3.789062 4.9375 -2.40625 C 4.957031 -2.34375 4.976562 -2.273438 5 -2.203125 C 5.03125 -2.128906 5.066406 -2.046875 5.109375 -1.953125 L 7.25 -3.59375 C 7.613281 -3.863281 7.941406 -4.109375 8.234375 -4.328125 C 8.535156 -4.546875 8.820312 -4.734375 9.09375 -4.890625 C 9.363281 -5.046875 9.640625 -5.164062 9.921875 -5.25 C 10.203125 -5.332031 10.503906 -5.375 10.828125 -5.375 C 11.003906 -5.375 11.164062 -5.34375 11.3125 -5.28125 C 11.40625 -5.25 11.453125 -5.179688 11.453125 -5.078125 C 11.453125 -4.992188 11.425781 -4.953125 11.375 -4.953125 C 11.351562 -4.953125 11.332031 -4.96875 11.3125 -5 C 11.257812 -5.050781 11.164062 -5.078125 11.03125 -5.078125 C 10.957031 -5.078125 10.859375 -5.066406 10.734375 -5.046875 C 10.609375 -5.023438 10.453125 -4.992188 10.265625 -4.953125 C 9.992188 -4.890625 9.703125 -4.789062 9.390625 -4.65625 C 9.085938 -4.53125 8.769531 -4.363281 8.4375 -4.15625 C 8.007812 -3.882812 7.429688 -3.472656 6.703125 -2.921875 C 6.335938 -2.628906 6.023438 -2.390625 5.765625 -2.203125 C 5.503906 -2.023438 5.304688 -1.890625 5.171875 -1.796875 C 5.273438 -1.578125 5.398438 -1.347656 5.546875 -1.109375 C 5.703125 -0.878906 5.867188 -0.648438 6.046875 -0.421875 C 6.222656 -0.203125 6.410156 -0.0078125 6.609375 0.15625 C 6.804688 0.320312 7.003906 0.453125 7.203125 0.546875 C 7.390625 0.628906 7.554688 0.671875 7.703125 0.671875 C 7.941406 0.671875 8.0625 0.582031 8.0625 0.40625 C 8.0625 0.394531 8.0625 0.378906 8.0625 0.359375 C 8.0625 0.347656 8.054688 0.335938 8.046875 0.328125 C 8.046875 0.316406 8.046875 0.304688 8.046875 0.296875 C 8.046875 0.296875 8.046875 0.289062 8.046875 0.28125 C 8.046875 0.238281 8.054688 0.195312 8.078125 0.15625 C 8.097656 0.125 8.125 0.109375 8.15625 0.109375 C 8.21875 0.109375 8.257812 0.179688 8.28125 0.328125 C 8.28125 0.335938 8.28125 0.347656 8.28125 0.359375 C 8.28125 0.378906 8.28125 0.394531 8.28125 0.40625 C 8.28125 0.519531 8.238281 0.613281 8.15625 0.6875 C 8.082031 0.769531 7.984375 0.832031 7.859375 0.875 C 7.734375 0.914062 7.597656 0.9375 7.453125 0.9375 Z M 4.15625 -1.796875 L 4.203125 -1.875 C 4.242188 -1.925781 4.296875 -2 4.359375 -2.09375 C 4.429688 -2.1875 4.503906 -2.296875 4.578125 -2.421875 C 4.523438 -2.441406 4.476562 -2.453125 4.4375 -2.453125 C 4.332031 -2.453125 4.242188 -2.40625 4.171875 -2.3125 C 4.109375 -2.226562 4.078125 -2.132812 4.078125 -2.03125 C 4.078125 -1.945312 4.101562 -1.867188 4.15625 -1.796875 Z M 4.46875 -1.671875 C 4.519531 -1.671875 4.550781 -1.675781 4.5625 -1.6875 C 4.625 -1.695312 4.722656 -1.734375 4.859375 -1.796875 C 4.835938 -1.859375 4.816406 -1.910156 4.796875 -1.953125 C 4.785156 -2.003906 4.773438 -2.050781 4.765625 -2.09375 C 4.734375 -2.03125 4.691406 -1.960938 4.640625 -1.890625 C 4.585938 -1.828125 4.53125 -1.753906 4.46875 -1.671875 Z M 4.46875 -1.671875 "/></g></g></g><g fill="#ffffff" fill-opacity="1"><g transform="translate(258.355301, 30.101137)"><g><path d="M 0.484375 0.03125 C 0.367188 0.03125 0.253906 -0.00390625 0.140625 -0.078125 C 0.0234375 -0.160156 -0.0390625 -0.257812 -0.0625 -0.375 C -0.101562 -0.75 0.128906 -1.191406 0.640625 -1.703125 C 1.148438 -2.210938 1.609375 -2.46875 2.015625 -2.46875 C 2.128906 -2.46875 2.21875 -2.4375 2.28125 -2.375 C 2.3125 -2.34375 2.332031 -2.296875 2.34375 -2.234375 C 2.363281 -2.179688 2.378906 -2.15625 2.390625 -2.15625 C 2.410156 -2.15625 2.425781 -2.160156 2.4375 -2.171875 C 2.457031 -2.179688 2.476562 -2.1875 2.5 -2.1875 C 2.550781 -2.1875 2.597656 -2.160156 2.640625 -2.109375 C 2.691406 -2.066406 2.71875 -2.03125 2.71875 -2 C 2.726562 -1.988281 2.578125 -1.75 2.265625 -1.28125 C 1.953125 -0.820312 1.804688 -0.515625 1.828125 -0.359375 C 1.859375 -0.242188 1.914062 -0.1875 2 -0.1875 C 2.25 -0.1875 2.703125 -0.597656 3.359375 -1.421875 C 3.378906 -1.441406 3.394531 -1.453125 3.40625 -1.453125 C 3.425781 -1.453125 3.4375 -1.4375 3.4375 -1.40625 C 3.4375 -1.363281 3.414062 -1.316406 3.375 -1.265625 C 2.769531 -0.441406 2.300781 -0.03125 1.96875 -0.03125 C 1.925781 -0.03125 1.882812 -0.0351562 1.84375 -0.046875 C 1.632812 -0.128906 1.53125 -0.289062 1.53125 -0.53125 C 1.53125 -0.613281 1.539062 -0.691406 1.5625 -0.765625 L 1.109375 -0.34375 C 0.972656 -0.207031 0.847656 -0.109375 0.734375 -0.046875 C 0.628906 0.00390625 0.546875 0.03125 0.484375 0.03125 Z M 0.421875 -0.125 C 0.703125 -0.125 1.082031 -0.429688 1.5625 -1.046875 L 2.328125 -2.09375 C 2.285156 -2.15625 2.222656 -2.1875 2.140625 -2.1875 C 1.847656 -2.1875 1.453125 -1.953125 0.953125 -1.484375 C 0.429688 -1.003906 0.195312 -0.609375 0.25 -0.296875 C 0.269531 -0.179688 0.328125 -0.125 0.421875 -0.125 Z M 0.421875 -0.125 "/></g></g></g><g fill="#ffffff" fill-opacity="1"><g transform="translate(261.32735, 30.101137)"><g><path d="M 0.34375 0.078125 C 0.125 0.078125 0.015625 -0.0546875 0.015625 -0.328125 C 0.015625 -0.429688 0.046875 -0.554688 0.109375 -0.703125 C 0.171875 -0.859375 0.265625 -1.015625 0.390625 -1.171875 C 0.390625 -1.171875 0.34375 -1.128906 0.25 -1.046875 C 0.164062 -0.972656 0.0703125 -0.875 -0.03125 -0.75 C -0.0507812 -0.726562 -0.078125 -0.71875 -0.109375 -0.71875 C -0.128906 -0.71875 -0.140625 -0.726562 -0.140625 -0.75 C -0.140625 -0.769531 -0.117188 -0.8125 -0.078125 -0.875 L 0.921875 -2.046875 C 1.046875 -2.191406 1.179688 -2.265625 1.328125 -2.265625 C 1.441406 -2.265625 1.5 -2.21875 1.5 -2.125 C 1.5 -2.09375 1.484375 -2.0625 1.453125 -2.03125 C 1.367188 -1.945312 1.257812 -1.820312 1.125 -1.65625 C 0.988281 -1.5 0.859375 -1.328125 0.734375 -1.140625 C 0.609375 -0.960938 0.503906 -0.789062 0.421875 -0.625 C 0.335938 -0.457031 0.296875 -0.328125 0.296875 -0.234375 C 0.296875 -0.140625 0.320312 -0.09375 0.375 -0.09375 C 0.414062 -0.09375 0.472656 -0.109375 0.546875 -0.140625 C 0.617188 -0.171875 0.710938 -0.226562 0.828125 -0.3125 C 0.953125 -0.394531 1.097656 -0.523438 1.265625 -0.703125 C 1.296875 -0.734375 1.375 -0.816406 1.5 -0.953125 C 1.625 -1.097656 1.789062 -1.304688 2 -1.578125 C 2.375 -2.046875 2.617188 -2.28125 2.734375 -2.28125 C 2.890625 -2.28125 2.976562 -2.21875 3 -2.09375 C 3.007812 -2.039062 2.90625 -1.894531 2.6875 -1.65625 C 2.414062 -1.320312 2.226562 -1.085938 2.125 -0.953125 C 1.9375 -0.671875 1.84375 -0.453125 1.84375 -0.296875 C 1.84375 -0.191406 1.878906 -0.140625 1.953125 -0.140625 C 2.023438 -0.140625 2.117188 -0.175781 2.234375 -0.25 C 2.347656 -0.320312 2.46875 -0.410156 2.59375 -0.515625 C 2.71875 -0.617188 2.835938 -0.726562 2.953125 -0.84375 C 3.078125 -0.96875 3.179688 -1.082031 3.265625 -1.1875 C 3.296875 -1.21875 3.320312 -1.234375 3.34375 -1.234375 C 3.375 -1.234375 3.390625 -1.21875 3.390625 -1.1875 C 3.390625 -1.175781 3.382812 -1.160156 3.375 -1.140625 C 3.375 -1.128906 3.363281 -1.109375 3.34375 -1.078125 C 3.269531 -0.992188 3.171875 -0.882812 3.046875 -0.75 C 2.921875 -0.625 2.789062 -0.5 2.65625 -0.375 C 2.519531 -0.25 2.382812 -0.144531 2.25 -0.0625 C 2.125 0.0078125 2.015625 0.046875 1.921875 0.046875 C 1.804688 0.046875 1.707031 0.0195312 1.625 -0.03125 C 1.550781 -0.09375 1.515625 -0.175781 1.515625 -0.28125 C 1.515625 -0.394531 1.53125 -0.503906 1.5625 -0.609375 C 1.59375 -0.710938 1.617188 -0.804688 1.640625 -0.890625 C 1.410156 -0.617188 1.207031 -0.414062 1.03125 -0.28125 C 0.863281 -0.144531 0.722656 -0.0507812 0.609375 0 C 0.492188 0.0507812 0.40625 0.078125 0.34375 0.078125 Z M 0.34375 0.078125 "/></g></g></g><g fill="#ffffff" fill-opacity="1"><g transform="translate(264.393178, 30.101137)"><g><path d="M 0.828125 0.015625 C 0.597656 0.015625 0.429688 -0.0546875 0.328125 -0.203125 C 0.222656 -0.359375 0.132812 -0.566406 0.0625 -0.828125 C -0.0195312 -0.742188 -0.078125 -0.703125 -0.109375 -0.703125 C -0.140625 -0.703125 -0.15625 -0.722656 -0.15625 -0.765625 C -0.15625 -0.785156 -0.140625 -0.8125 -0.109375 -0.84375 C -0.109375 -0.84375 -0.0507812 -0.914062 0.0625 -1.0625 C 0.1875 -1.207031 0.394531 -1.414062 0.6875 -1.6875 L 1.609375 -2.546875 C 1.734375 -2.660156 1.832031 -2.75 1.90625 -2.8125 C 1.976562 -2.875 2.03125 -2.90625 2.0625 -2.90625 C 2.21875 -2.90625 2.296875 -2.847656 2.296875 -2.734375 C 2.296875 -2.679688 2.265625 -2.613281 2.203125 -2.53125 C 2.148438 -2.476562 2.113281 -2.4375 2.09375 -2.40625 C 2.070312 -2.375 2.0625 -2.351562 2.0625 -2.34375 C 1.96875 -2.195312 1.882812 -1.929688 1.8125 -1.546875 C 1.757812 -1.265625 1.710938 -1.03125 1.671875 -0.84375 C 1.640625 -0.65625 1.613281 -0.523438 1.59375 -0.453125 C 1.789062 -0.453125 1.988281 -0.507812 2.1875 -0.625 C 2.382812 -0.75 2.597656 -0.953125 2.828125 -1.234375 C 2.835938 -1.234375 2.847656 -1.242188 2.859375 -1.265625 C 2.878906 -1.285156 2.898438 -1.296875 2.921875 -1.296875 C 2.953125 -1.296875 2.96875 -1.285156 2.96875 -1.265625 C 2.96875 -1.242188 2.957031 -1.21875 2.9375 -1.1875 C 2.925781 -1.164062 2.914062 -1.144531 2.90625 -1.125 C 2.75 -0.945312 2.601562 -0.800781 2.46875 -0.6875 C 2.34375 -0.570312 2.207031 -0.484375 2.0625 -0.421875 C 1.925781 -0.359375 1.757812 -0.304688 1.5625 -0.265625 L 1.328125 -0.109375 C 1.265625 -0.0664062 1.1875 -0.0351562 1.09375 -0.015625 C 1.007812 0.00390625 0.921875 0.015625 0.828125 0.015625 Z M 0.921875 -0.359375 C 1.023438 -0.359375 1.113281 -0.382812 1.1875 -0.4375 C 1.238281 -0.457031 1.289062 -0.535156 1.34375 -0.671875 C 1.394531 -0.804688 1.445312 -0.972656 1.5 -1.171875 C 1.53125 -1.335938 1.554688 -1.5 1.578125 -1.65625 C 1.597656 -1.820312 1.617188 -1.976562 1.640625 -2.125 L 1.671875 -2.375 C 1.566406 -2.289062 1.425781 -2.171875 1.25 -2.015625 C 1.082031 -1.867188 0.921875 -1.707031 0.765625 -1.53125 C 0.597656 -1.363281 0.488281 -1.238281 0.4375 -1.15625 C 0.394531 -1.082031 0.367188 -1.023438 0.359375 -0.984375 C 0.335938 -0.796875 0.382812 -0.644531 0.5 -0.53125 C 0.613281 -0.414062 0.753906 -0.359375 0.921875 -0.359375 Z M 0.921875 -0.359375 "/></g></g></g><g fill="#ffffff" fill-opacity="1"><g transform="translate(266.982901, 30.101137)"><g><path d="M -0.1875 0.03125 C -0.332031 0.03125 -0.40625 -0.0078125 -0.40625 -0.09375 C -0.40625 -0.132812 -0.375 -0.207031 -0.3125 -0.3125 C -0.09375 -0.707031 0.101562 -1.054688 0.28125 -1.359375 C 0.457031 -1.671875 0.613281 -1.929688 0.75 -2.140625 C 1.320312 -3.054688 1.722656 -3.554688 1.953125 -3.640625 C 1.960938 -3.640625 1.96875 -3.640625 1.96875 -3.640625 C 1.976562 -3.640625 1.988281 -3.640625 2 -3.640625 C 2.0625 -3.640625 2.097656 -3.59375 2.109375 -3.5 C 2.097656 -3.394531 1.847656 -3.023438 1.359375 -2.390625 C 1.109375 -2.066406 0.910156 -1.800781 0.765625 -1.59375 C 0.628906 -1.382812 0.539062 -1.234375 0.5 -1.140625 C 0.664062 -1.253906 0.835938 -1.375 1.015625 -1.5 C 1.203125 -1.632812 1.378906 -1.757812 1.546875 -1.875 C 1.722656 -2 1.878906 -2.097656 2.015625 -2.171875 C 2.160156 -2.242188 2.269531 -2.285156 2.34375 -2.296875 C 2.351562 -2.296875 2.363281 -2.296875 2.375 -2.296875 C 2.394531 -2.296875 2.40625 -2.296875 2.40625 -2.296875 C 2.539062 -2.296875 2.609375 -2.234375 2.609375 -2.109375 C 2.609375 -2.078125 2.566406 -2.003906 2.484375 -1.890625 C 2.398438 -1.773438 2.269531 -1.597656 2.09375 -1.359375 C 1.769531 -0.929688 1.609375 -0.613281 1.609375 -0.40625 C 1.609375 -0.289062 1.648438 -0.234375 1.734375 -0.234375 C 1.816406 -0.242188 1.914062 -0.285156 2.03125 -0.359375 C 2.144531 -0.429688 2.257812 -0.519531 2.375 -0.625 C 2.488281 -0.726562 2.59375 -0.832031 2.6875 -0.9375 C 2.78125 -1.039062 2.851562 -1.117188 2.90625 -1.171875 C 2.945312 -1.210938 2.976562 -1.234375 3 -1.234375 C 3.019531 -1.234375 3.03125 -1.226562 3.03125 -1.21875 C 3.03125 -1.175781 3.007812 -1.128906 2.96875 -1.078125 C 2.914062 -1.003906 2.832031 -0.910156 2.71875 -0.796875 C 2.601562 -0.679688 2.476562 -0.5625 2.34375 -0.4375 C 2.21875 -0.320312 2.09375 -0.222656 1.96875 -0.140625 C 1.851562 -0.0664062 1.765625 -0.03125 1.703125 -0.03125 C 1.421875 -0.03125 1.28125 -0.195312 1.28125 -0.53125 C 1.28125 -0.71875 1.367188 -0.960938 1.546875 -1.265625 C 1.609375 -1.378906 1.675781 -1.492188 1.75 -1.609375 C 1.820312 -1.722656 1.894531 -1.835938 1.96875 -1.953125 C 1.351562 -1.648438 0.796875 -1.195312 0.296875 -0.59375 C 0.234375 -0.507812 0.164062 -0.414062 0.09375 -0.3125 C 0.03125 -0.21875 -0.0234375 -0.132812 -0.078125 -0.0625 C -0.128906 0 -0.164062 0.03125 -0.1875 0.03125 Z M -0.1875 0.03125 "/></g></g></g><g fill="#ffffff" fill-opacity="1"><g transform="translate(269.695257, 30.101137)"><g><path d="M 0.484375 0.03125 C 0.367188 0.03125 0.253906 -0.00390625 0.140625 -0.078125 C 0.0234375 -0.160156 -0.0390625 -0.257812 -0.0625 -0.375 C -0.101562 -0.75 0.128906 -1.191406 0.640625 -1.703125 C 1.148438 -2.210938 1.609375 -2.46875 2.015625 -2.46875 C 2.128906 -2.46875 2.21875 -2.4375 2.28125 -2.375 C 2.3125 -2.34375 2.332031 -2.296875 2.34375 -2.234375 C 2.363281 -2.179688 2.378906 -2.15625 2.390625 -2.15625 C 2.410156 -2.15625 2.425781 -2.160156 2.4375 -2.171875 C 2.457031 -2.179688 2.476562 -2.1875 2.5 -2.1875 C 2.550781 -2.1875 2.597656 -2.160156 2.640625 -2.109375 C 2.691406 -2.066406 2.71875 -2.03125 2.71875 -2 C 2.726562 -1.988281 2.578125 -1.75 2.265625 -1.28125 C 1.953125 -0.820312 1.804688 -0.515625 1.828125 -0.359375 C 1.859375 -0.242188 1.914062 -0.1875 2 -0.1875 C 2.25 -0.1875 2.703125 -0.597656 3.359375 -1.421875 C 3.378906 -1.441406 3.394531 -1.453125 3.40625 -1.453125 C 3.425781 -1.453125 3.4375 -1.4375 3.4375 -1.40625 C 3.4375 -1.363281 3.414062 -1.316406 3.375 -1.265625 C 2.769531 -0.441406 2.300781 -0.03125 1.96875 -0.03125 C 1.925781 -0.03125 1.882812 -0.0351562 1.84375 -0.046875 C 1.632812 -0.128906 1.53125 -0.289062 1.53125 -0.53125 C 1.53125 -0.613281 1.539062 -0.691406 1.5625 -0.765625 L 1.109375 -0.34375 C 0.972656 -0.207031 0.847656 -0.109375 0.734375 -0.046875 C 0.628906 0.00390625 0.546875 0.03125 0.484375 0.03125 Z M 0.421875 -0.125 C 0.703125 -0.125 1.082031 -0.429688 1.5625 -1.046875 L 2.328125 -2.09375 C 2.285156 -2.15625 2.222656 -2.1875 2.140625 -2.1875 C 1.847656 -2.1875 1.453125 -1.953125 0.953125 -1.484375 C 0.429688 -1.003906 0.195312 -0.609375 0.25 -0.296875 C 0.269531 -0.179688 0.328125 -0.125 0.421875 -0.125 Z M 0.421875 -0.125 "/></g></g></g><g fill="#ffffff" fill-opacity="1"><g transform="translate(272.667306, 30.101137)"><g><path d="M 0.546875 0.015625 C 0.410156 0.015625 0.28125 -0.015625 0.15625 -0.078125 C 0.0390625 -0.148438 -0.015625 -0.269531 -0.015625 -0.4375 C -0.015625 -0.664062 0.0625 -0.9375 0.21875 -1.25 C 0.382812 -1.5625 0.566406 -1.882812 0.765625 -2.21875 C 1.328125 -3.132812 1.726562 -3.59375 1.96875 -3.59375 C 2.019531 -3.59375 2.066406 -3.570312 2.109375 -3.53125 C 2.160156 -3.5 2.191406 -3.460938 2.203125 -3.421875 L 1.703125 -2.75 C 1.503906 -2.476562 1.320312 -2.226562 1.15625 -2 C 1 -1.78125 0.863281 -1.582031 0.75 -1.40625 C 0.695312 -1.3125 0.632812 -1.207031 0.5625 -1.09375 C 0.488281 -0.976562 0.421875 -0.859375 0.359375 -0.734375 C 0.304688 -0.617188 0.28125 -0.5 0.28125 -0.375 C 0.28125 -0.3125 0.296875 -0.253906 0.328125 -0.203125 C 0.359375 -0.160156 0.421875 -0.140625 0.515625 -0.140625 C 0.671875 -0.140625 0.875 -0.222656 1.125 -0.390625 C 1.375 -0.554688 1.617188 -0.785156 1.859375 -1.078125 C 1.890625 -1.109375 1.914062 -1.132812 1.9375 -1.15625 C 1.96875 -1.1875 1.992188 -1.203125 2.015625 -1.203125 C 2.035156 -1.203125 2.046875 -1.1875 2.046875 -1.15625 C 2.046875 -1.144531 2.03125 -1.117188 2 -1.078125 C 1.96875 -1.035156 1.941406 -1 1.921875 -0.96875 L 1.75 -0.78125 C 1.65625 -0.675781 1.539062 -0.5625 1.40625 -0.4375 C 1.28125 -0.3125 1.140625 -0.203125 0.984375 -0.109375 C 0.835938 -0.0234375 0.691406 0.015625 0.546875 0.015625 Z M 0.546875 0.015625 "/></g></g></g><g fill="#ffffff" fill-opacity="1"><g transform="translate(274.420237, 30.101137)"><g><path d="M 0.453125 0.046875 C 0.296875 0.046875 0.171875 0.0078125 0.078125 -0.0625 C -0.00390625 -0.144531 -0.046875 -0.28125 -0.046875 -0.46875 C -0.046875 -0.582031 -0.015625 -0.722656 0.046875 -0.890625 C 0.117188 -1.054688 0.203125 -1.238281 0.296875 -1.4375 C 0.398438 -1.632812 0.503906 -1.832031 0.609375 -2.03125 C 0.546875 -2.007812 0.488281 -2 0.4375 -2 C 0.289062 -2 0.21875 -2.054688 0.21875 -2.171875 C 0.21875 -2.222656 0.238281 -2.265625 0.28125 -2.296875 C 0.320312 -2.328125 0.359375 -2.34375 0.390625 -2.34375 C 0.390625 -2.34375 0.394531 -2.34375 0.40625 -2.34375 C 0.425781 -2.34375 0.445312 -2.347656 0.46875 -2.359375 L 0.875 -2.359375 C 0.96875 -2.460938 1.054688 -2.578125 1.140625 -2.703125 C 1.273438 -2.867188 1.378906 -2.96875 1.453125 -3 L 1.484375 -3 C 1.515625 -3 1.5625 -2.976562 1.625 -2.9375 C 1.695312 -2.894531 1.734375 -2.851562 1.734375 -2.8125 C 1.734375 -2.75 1.617188 -2.585938 1.390625 -2.328125 C 1.429688 -2.328125 1.492188 -2.328125 1.578125 -2.328125 C 1.660156 -2.328125 1.765625 -2.328125 1.890625 -2.328125 C 1.941406 -2.328125 2.019531 -2.328125 2.125 -2.328125 C 2.238281 -2.328125 2.351562 -2.328125 2.46875 -2.328125 C 2.59375 -2.328125 2.695312 -2.328125 2.78125 -2.328125 C 2.863281 -2.335938 2.910156 -2.34375 2.921875 -2.34375 C 2.929688 -2.332031 2.9375 -2.320312 2.9375 -2.3125 C 2.9375 -2.269531 2.65625 -2.210938 2.09375 -2.140625 C 1.769531 -2.097656 1.519531 -2.0625 1.34375 -2.03125 C 1.175781 -2.007812 1.085938 -2 1.078125 -2 C 1.003906 -1.9375 0.921875 -1.835938 0.828125 -1.703125 C 0.734375 -1.566406 0.632812 -1.410156 0.53125 -1.234375 C 0.4375 -1.054688 0.359375 -0.890625 0.296875 -0.734375 C 0.234375 -0.578125 0.203125 -0.457031 0.203125 -0.375 C 0.203125 -0.300781 0.226562 -0.238281 0.28125 -0.1875 C 0.34375 -0.132812 0.4375 -0.109375 0.5625 -0.109375 C 0.65625 -0.109375 0.757812 -0.125 0.875 -0.15625 C 1 -0.195312 1.113281 -0.242188 1.21875 -0.296875 C 1.332031 -0.347656 1.410156 -0.390625 1.453125 -0.421875 C 1.578125 -0.492188 1.710938 -0.59375 1.859375 -0.71875 C 2.015625 -0.851562 2.171875 -1 2.328125 -1.15625 C 2.390625 -1.226562 2.4375 -1.265625 2.46875 -1.265625 C 2.476562 -1.265625 2.484375 -1.253906 2.484375 -1.234375 C 2.484375 -1.191406 2.445312 -1.128906 2.375 -1.046875 C 2.257812 -0.910156 2.128906 -0.773438 1.984375 -0.640625 C 1.847656 -0.515625 1.691406 -0.398438 1.515625 -0.296875 C 1.316406 -0.171875 1.125 -0.0820312 0.9375 -0.03125 C 0.757812 0.0195312 0.597656 0.046875 0.453125 0.046875 Z M 0.453125 0.046875 "/></g></g></g><g fill="#ffffff" fill-opacity="1"><g transform="translate(276.56271, 30.101137)"><g><path d="M 0.484375 0.03125 C 0.367188 0.03125 0.253906 -0.00390625 0.140625 -0.078125 C 0.0234375 -0.160156 -0.0390625 -0.257812 -0.0625 -0.375 C -0.101562 -0.75 0.128906 -1.191406 0.640625 -1.703125 C 1.148438 -2.210938 1.609375 -2.46875 2.015625 -2.46875 C 2.128906 -2.46875 2.21875 -2.4375 2.28125 -2.375 C 2.3125 -2.34375 2.332031 -2.296875 2.34375 -2.234375 C 2.363281 -2.179688 2.378906 -2.15625 2.390625 -2.15625 C 2.410156 -2.15625 2.425781 -2.160156 2.4375 -2.171875 C 2.457031 -2.179688 2.476562 -2.1875 2.5 -2.1875 C 2.550781 -2.1875 2.597656 -2.160156 2.640625 -2.109375 C 2.691406 -2.066406 2.71875 -2.03125 2.71875 -2 C 2.726562 -1.988281 2.578125 -1.75 2.265625 -1.28125 C 1.953125 -0.820312 1.804688 -0.515625 1.828125 -0.359375 C 1.859375 -0.242188 1.914062 -0.1875 2 -0.1875 C 2.25 -0.1875 2.703125 -0.597656 3.359375 -1.421875 C 3.378906 -1.441406 3.394531 -1.453125 3.40625 -1.453125 C 3.425781 -1.453125 3.4375 -1.4375 3.4375 -1.40625 C 3.4375 -1.363281 3.414062 -1.316406 3.375 -1.265625 C 2.769531 -0.441406 2.300781 -0.03125 1.96875 -0.03125 C 1.925781 -0.03125 1.882812 -0.0351562 1.84375 -0.046875 C 1.632812 -0.128906 1.53125 -0.289062 1.53125 -0.53125 C 1.53125 -0.613281 1.539062 -0.691406 1.5625 -0.765625 L 1.109375 -0.34375 C 0.972656 -0.207031 0.847656 -0.109375 0.734375 -0.046875 C 0.628906 0.00390625 0.546875 0.03125 0.484375 0.03125 Z M 0.421875 -0.125 C 0.703125 -0.125 1.082031 -0.429688 1.5625 -1.046875 L 2.328125 -2.09375 C 2.285156 -2.15625 2.222656 -2.1875 2.140625 -2.1875 C 1.847656 -2.1875 1.453125 -1.953125 0.953125 -1.484375 C 0.429688 -1.003906 0.195312 -0.609375 0.25 -0.296875 C 0.269531 -0.179688 0.328125 -0.125 0.421875 -0.125 Z M 0.421875 -0.125 "/></g></g></g><g fill="#ffffff" fill-opacity="1"><g transform="translate(279.534759, 30.101137)"><g><path d="M 1.46875 0.03125 C 1.257812 0.03125 1.117188 -0.0195312 1.046875 -0.125 C 0.972656 -0.226562 0.9375 -0.375 0.9375 -0.5625 C 0.9375 -0.757812 1 -1 1.125 -1.28125 C 1.164062 -1.394531 1.210938 -1.492188 1.265625 -1.578125 C 1.316406 -1.671875 1.375 -1.753906 1.4375 -1.828125 C 1.414062 -1.828125 1.394531 -1.828125 1.375 -1.828125 C 1.363281 -1.828125 1.351562 -1.828125 1.34375 -1.828125 C 1.226562 -1.828125 1.128906 -1.910156 1.046875 -2.078125 L 0.515625 -1.375 C 0.234375 -1.007812 0.0625 -0.828125 0 -0.828125 C -0.0195312 -0.828125 -0.03125 -0.835938 -0.03125 -0.859375 C -0.03125 -0.878906 -0.0195312 -0.910156 0 -0.953125 C 0.0078125 -0.972656 0.0390625 -1.007812 0.09375 -1.0625 C 0.269531 -1.269531 0.4375 -1.476562 0.59375 -1.6875 C 0.75 -1.894531 0.875 -2.097656 0.96875 -2.296875 C 1.082031 -2.710938 1.222656 -2.921875 1.390625 -2.921875 C 1.503906 -2.921875 1.5625 -2.867188 1.5625 -2.765625 C 1.5625 -2.679688 1.5 -2.5625 1.375 -2.40625 C 1.257812 -2.257812 1.203125 -2.1875 1.203125 -2.1875 C 1.203125 -2.082031 1.273438 -2.03125 1.421875 -2.03125 C 1.515625 -2.03125 1.613281 -2.0625 1.71875 -2.125 L 1.90625 -2.234375 C 1.914062 -2.242188 1.929688 -2.25 1.953125 -2.25 C 2.003906 -2.25 2.050781 -2.222656 2.09375 -2.171875 C 2.144531 -2.117188 2.160156 -2.078125 2.140625 -2.046875 L 1.640625 -1.421875 C 1.335938 -1.023438 1.1875 -0.707031 1.1875 -0.46875 C 1.1875 -0.25 1.289062 -0.140625 1.5 -0.140625 C 1.644531 -0.140625 1.800781 -0.179688 1.96875 -0.265625 C 2.132812 -0.347656 2.296875 -0.453125 2.453125 -0.578125 C 2.609375 -0.710938 2.738281 -0.835938 2.84375 -0.953125 L 3.015625 -1.15625 C 3.023438 -1.164062 3.035156 -1.175781 3.046875 -1.1875 C 3.066406 -1.207031 3.082031 -1.21875 3.09375 -1.21875 C 3.125 -1.21875 3.140625 -1.203125 3.140625 -1.171875 C 3.140625 -1.160156 3.132812 -1.140625 3.125 -1.109375 C 3.113281 -1.085938 3.097656 -1.066406 3.078125 -1.046875 L 2.84375 -0.78125 C 2.726562 -0.65625 2.585938 -0.523438 2.421875 -0.390625 C 2.265625 -0.265625 2.101562 -0.160156 1.9375 -0.078125 C 1.769531 -0.00390625 1.613281 0.03125 1.46875 0.03125 Z M 1.46875 0.03125 "/></g></g></g><g fill="#ffffff" fill-opacity="1"><g transform="translate(282.376961, 30.101137)"><g><path d="M 0.609375 0.578125 C 0.585938 0.566406 0.578125 0.5625 0.578125 0.5625 C 0.578125 0.550781 0.632812 0.484375 0.75 0.359375 C 0.863281 0.234375 0.910156 0.125 0.890625 0.03125 C 0.890625 -0.0195312 0.859375 -0.0664062 0.796875 -0.109375 C 0.734375 -0.148438 0.703125 -0.191406 0.703125 -0.234375 C 0.703125 -0.378906 0.769531 -0.453125 0.90625 -0.453125 C 0.976562 -0.453125 1.046875 -0.425781 1.109375 -0.375 C 1.179688 -0.332031 1.21875 -0.273438 1.21875 -0.203125 C 1.21875 -0.00390625 1.128906 0.1875 0.953125 0.375 C 0.804688 0.53125 0.691406 0.597656 0.609375 0.578125 Z M 0.609375 0.578125 "/></g></g></g><g fill="#ffffff" fill-opacity="1"><g transform="translate(283.776422, 30.101137)"><g/></g></g><g fill="#ffffff" fill-opacity="1"><g transform="translate(285.204737, 30.101137)"><g><path d="M 3.0625 0.34375 C 2.300781 0.34375 1.785156 0.0820312 1.515625 -0.4375 C 1.015625 -0.0195312 0.660156 0.1875 0.453125 0.1875 C 0.347656 0.1875 0.265625 0.132812 0.203125 0.03125 C 0.148438 -0.0625 0.125 -0.164062 0.125 -0.28125 C 0.125 -0.570312 0.238281 -0.910156 0.46875 -1.296875 C 0.5625 -1.460938 0.664062 -1.613281 0.78125 -1.75 C 0.894531 -1.894531 1.023438 -1.96875 1.171875 -1.96875 C 1.304688 -1.96875 1.410156 -1.851562 1.484375 -1.625 L 1.703125 -0.9375 C 1.773438 -1.007812 1.859375 -1.101562 1.953125 -1.21875 C 2.046875 -1.34375 2.15625 -1.484375 2.28125 -1.640625 L 2.921875 -2.515625 C 3.703125 -3.535156 4.21875 -4.09375 4.46875 -4.1875 C 4.550781 -4.226562 4.640625 -4.25 4.734375 -4.25 C 4.828125 -4.25 4.898438 -4.226562 4.953125 -4.1875 C 5.015625 -4.144531 5.046875 -4.097656 5.046875 -4.046875 C 5.046875 -3.953125 4.976562 -3.898438 4.84375 -3.890625 C 4.695312 -3.804688 4.414062 -3.5625 4 -3.15625 C 3.800781 -2.96875 3.644531 -2.8125 3.53125 -2.6875 C 3.414062 -2.570312 3.335938 -2.484375 3.296875 -2.421875 C 2.753906 -1.671875 2.253906 -1.09375 1.796875 -0.6875 C 2.085938 -0.101562 2.53125 0.1875 3.125 0.1875 C 3.34375 0.1875 3.566406 0.140625 3.796875 0.046875 C 4.023438 -0.046875 4.234375 -0.171875 4.421875 -0.328125 C 4.617188 -0.484375 4.773438 -0.65625 4.890625 -0.84375 C 5.015625 -1.03125 5.078125 -1.21875 5.078125 -1.40625 C 5.078125 -1.601562 5.003906 -1.78125 4.859375 -1.9375 C 4.722656 -2.101562 4.554688 -2.21875 4.359375 -2.28125 C 4.359375 -2.28125 4.320312 -2.285156 4.25 -2.296875 C 4.175781 -2.304688 4.066406 -2.320312 3.921875 -2.34375 C 3.691406 -2.363281 3.578125 -2.40625 3.578125 -2.46875 C 3.578125 -2.519531 3.601562 -2.5625 3.65625 -2.59375 C 3.71875 -2.625 3.773438 -2.640625 3.828125 -2.640625 C 3.867188 -2.640625 3.921875 -2.628906 3.984375 -2.609375 C 4.046875 -2.585938 4.097656 -2.566406 4.140625 -2.546875 C 4.179688 -2.535156 4.203125 -2.53125 4.203125 -2.53125 C 4.242188 -2.53125 4.285156 -2.523438 4.328125 -2.515625 C 4.378906 -2.515625 4.429688 -2.515625 4.484375 -2.515625 C 4.796875 -2.515625 5.082031 -2.566406 5.34375 -2.671875 C 5.59375 -2.773438 5.773438 -2.914062 5.890625 -3.09375 C 6.015625 -3.269531 6.078125 -3.472656 6.078125 -3.703125 C 6.078125 -3.953125 6 -4.144531 5.84375 -4.28125 C 5.6875 -4.414062 5.484375 -4.515625 5.234375 -4.578125 C 4.992188 -4.640625 4.726562 -4.671875 4.4375 -4.671875 C 3.875 -4.671875 3.335938 -4.585938 2.828125 -4.421875 C 2.328125 -4.265625 1.890625 -3.992188 1.515625 -3.609375 C 1.234375 -3.316406 1.09375 -3.070312 1.09375 -2.875 C 1.09375 -2.726562 1.128906 -2.609375 1.203125 -2.515625 C 1.222656 -2.492188 1.242188 -2.46875 1.265625 -2.4375 C 1.285156 -2.414062 1.3125 -2.394531 1.34375 -2.375 C 1.375 -2.363281 1.363281 -2.359375 1.3125 -2.359375 C 1.007812 -2.421875 0.859375 -2.617188 0.859375 -2.953125 C 0.859375 -3.285156 1.023438 -3.597656 1.359375 -3.890625 C 1.617188 -4.117188 1.914062 -4.300781 2.25 -4.4375 C 2.582031 -4.582031 2.9375 -4.6875 3.3125 -4.75 C 3.6875 -4.8125 4.054688 -4.84375 4.421875 -4.84375 C 4.679688 -4.84375 4.929688 -4.820312 5.171875 -4.78125 C 5.410156 -4.738281 5.625 -4.671875 5.8125 -4.578125 C 6.007812 -4.492188 6.164062 -4.378906 6.28125 -4.234375 C 6.394531 -4.085938 6.453125 -3.910156 6.453125 -3.703125 C 6.453125 -3.398438 6.375 -3.160156 6.21875 -2.984375 C 6.0625 -2.804688 5.847656 -2.671875 5.578125 -2.578125 C 5.253906 -2.460938 4.910156 -2.40625 4.546875 -2.40625 C 4.742188 -2.394531 4.921875 -2.335938 5.078125 -2.234375 C 5.234375 -2.140625 5.351562 -2.015625 5.4375 -1.859375 C 5.519531 -1.710938 5.5625 -1.546875 5.5625 -1.359375 C 5.5625 -1.117188 5.488281 -0.894531 5.34375 -0.6875 C 5.195312 -0.476562 5 -0.296875 4.75 -0.140625 C 4.5 0.015625 4.226562 0.132812 3.9375 0.21875 C 3.644531 0.300781 3.351562 0.34375 3.0625 0.34375 Z M 0.546875 0.015625 C 0.691406 0.015625 0.984375 -0.203125 1.421875 -0.640625 L 1.40625 -0.671875 C 1.21875 -1.304688 1.066406 -1.625 0.953125 -1.625 C 0.941406 -1.625 0.925781 -1.617188 0.90625 -1.609375 C 0.550781 -1.097656 0.375 -0.6875 0.375 -0.375 C 0.375 -0.3125 0.382812 -0.226562 0.40625 -0.125 C 0.4375 -0.03125 0.484375 0.015625 0.546875 0.015625 Z M 0.546875 0.015625 "/></g></g></g><g fill="#ffffff" fill-opacity="1"><g transform="translate(291.112767, 30.101137)"><g><path d="M -0.1875 0.03125 C -0.332031 0.03125 -0.40625 -0.0078125 -0.40625 -0.09375 C -0.40625 -0.132812 -0.375 -0.207031 -0.3125 -0.3125 C -0.09375 -0.707031 0.101562 -1.054688 0.28125 -1.359375 C 0.457031 -1.671875 0.613281 -1.929688 0.75 -2.140625 C 1.320312 -3.054688 1.722656 -3.554688 1.953125 -3.640625 C 1.960938 -3.640625 1.96875 -3.640625 1.96875 -3.640625 C 1.976562 -3.640625 1.988281 -3.640625 2 -3.640625 C 2.0625 -3.640625 2.097656 -3.59375 2.109375 -3.5 C 2.097656 -3.394531 1.847656 -3.023438 1.359375 -2.390625 C 1.109375 -2.066406 0.910156 -1.800781 0.765625 -1.59375 C 0.628906 -1.382812 0.539062 -1.234375 0.5 -1.140625 C 0.664062 -1.253906 0.835938 -1.375 1.015625 -1.5 C 1.203125 -1.632812 1.378906 -1.757812 1.546875 -1.875 C 1.722656 -2 1.878906 -2.097656 2.015625 -2.171875 C 2.160156 -2.242188 2.269531 -2.285156 2.34375 -2.296875 C 2.351562 -2.296875 2.363281 -2.296875 2.375 -2.296875 C 2.394531 -2.296875 2.40625 -2.296875 2.40625 -2.296875 C 2.539062 -2.296875 2.609375 -2.234375 2.609375 -2.109375 C 2.609375 -2.078125 2.566406 -2.003906 2.484375 -1.890625 C 2.398438 -1.773438 2.269531 -1.597656 2.09375 -1.359375 C 1.769531 -0.929688 1.609375 -0.613281 1.609375 -0.40625 C 1.609375 -0.289062 1.648438 -0.234375 1.734375 -0.234375 C 1.816406 -0.242188 1.914062 -0.285156 2.03125 -0.359375 C 2.144531 -0.429688 2.257812 -0.519531 2.375 -0.625 C 2.488281 -0.726562 2.59375 -0.832031 2.6875 -0.9375 C 2.78125 -1.039062 2.851562 -1.117188 2.90625 -1.171875 C 2.945312 -1.210938 2.976562 -1.234375 3 -1.234375 C 3.019531 -1.234375 3.03125 -1.226562 3.03125 -1.21875 C 3.03125 -1.175781 3.007812 -1.128906 2.96875 -1.078125 C 2.914062 -1.003906 2.832031 -0.910156 2.71875 -0.796875 C 2.601562 -0.679688 2.476562 -0.5625 2.34375 -0.4375 C 2.21875 -0.320312 2.09375 -0.222656 1.96875 -0.140625 C 1.851562 -0.0664062 1.765625 -0.03125 1.703125 -0.03125 C 1.421875 -0.03125 1.28125 -0.195312 1.28125 -0.53125 C 1.28125 -0.71875 1.367188 -0.960938 1.546875 -1.265625 C 1.609375 -1.378906 1.675781 -1.492188 1.75 -1.609375 C 1.820312 -1.722656 1.894531 -1.835938 1.96875 -1.953125 C 1.351562 -1.648438 0.796875 -1.195312 0.296875 -0.59375 C 0.234375 -0.507812 0.164062 -0.414062 0.09375 -0.3125 C 0.03125 -0.21875 -0.0234375 -0.132812 -0.078125 -0.0625 C -0.128906 0 -0.164062 0.03125 -0.1875 0.03125 Z M -0.1875 0.03125 "/></g></g></g><g fill="#ffffff" fill-opacity="1"><g transform="translate(293.825124, 30.101137)"><g><path d="M 0.484375 0.03125 C 0.367188 0.03125 0.253906 -0.00390625 0.140625 -0.078125 C 0.0234375 -0.160156 -0.0390625 -0.257812 -0.0625 -0.375 C -0.101562 -0.75 0.128906 -1.191406 0.640625 -1.703125 C 1.148438 -2.210938 1.609375 -2.46875 2.015625 -2.46875 C 2.128906 -2.46875 2.21875 -2.4375 2.28125 -2.375 C 2.3125 -2.34375 2.332031 -2.296875 2.34375 -2.234375 C 2.363281 -2.179688 2.378906 -2.15625 2.390625 -2.15625 C 2.410156 -2.15625 2.425781 -2.160156 2.4375 -2.171875 C 2.457031 -2.179688 2.476562 -2.1875 2.5 -2.1875 C 2.550781 -2.1875 2.597656 -2.160156 2.640625 -2.109375 C 2.691406 -2.066406 2.71875 -2.03125 2.71875 -2 C 2.726562 -1.988281 2.578125 -1.75 2.265625 -1.28125 C 1.953125 -0.820312 1.804688 -0.515625 1.828125 -0.359375 C 1.859375 -0.242188 1.914062 -0.1875 2 -0.1875 C 2.25 -0.1875 2.703125 -0.597656 3.359375 -1.421875 C 3.378906 -1.441406 3.394531 -1.453125 3.40625 -1.453125 C 3.425781 -1.453125 3.4375 -1.4375 3.4375 -1.40625 C 3.4375 -1.363281 3.414062 -1.316406 3.375 -1.265625 C 2.769531 -0.441406 2.300781 -0.03125 1.96875 -0.03125 C 1.925781 -0.03125 1.882812 -0.0351562 1.84375 -0.046875 C 1.632812 -0.128906 1.53125 -0.289062 1.53125 -0.53125 C 1.53125 -0.613281 1.539062 -0.691406 1.5625 -0.765625 L 1.109375 -0.34375 C 0.972656 -0.207031 0.847656 -0.109375 0.734375 -0.046875 C 0.628906 0.00390625 0.546875 0.03125 0.484375 0.03125 Z M 0.421875 -0.125 C 0.703125 -0.125 1.082031 -0.429688 1.5625 -1.046875 L 2.328125 -2.09375 C 2.285156 -2.15625 2.222656 -2.1875 2.140625 -2.1875 C 1.847656 -2.1875 1.453125 -1.953125 0.953125 -1.484375 C 0.429688 -1.003906 0.195312 -0.609375 0.25 -0.296875 C 0.269531 -0.179688 0.328125 -0.125 0.421875 -0.125 Z M 0.421875 -0.125 "/></g></g></g><g fill="#ffffff" fill-opacity="1"><g transform="translate(296.797175, 30.101137)"><g><path d="M 1.484375 0.09375 C 1.316406 0.09375 1.171875 0.046875 1.046875 -0.046875 C 0.929688 -0.140625 0.828125 -0.253906 0.734375 -0.390625 C 0.648438 -0.535156 0.578125 -0.675781 0.515625 -0.8125 C 0.484375 -0.769531 0.445312 -0.710938 0.40625 -0.640625 C 0.375 -0.578125 0.332031 -0.5 0.28125 -0.40625 L 0.0625 0.03125 C -0.113281 -0.03125 -0.203125 -0.117188 -0.203125 -0.234375 C -0.203125 -0.441406 0.113281 -1.019531 0.75 -1.96875 C 1.351562 -2.875 1.769531 -3.410156 2 -3.578125 C 2.03125 -3.597656 2.070312 -3.609375 2.125 -3.609375 C 2.269531 -3.609375 2.34375 -3.566406 2.34375 -3.484375 C 2.34375 -3.472656 2.304688 -3.421875 2.234375 -3.328125 C 2.171875 -3.242188 2.085938 -3.140625 1.984375 -3.015625 C 1.890625 -2.890625 1.789062 -2.757812 1.6875 -2.625 C 1.582031 -2.5 1.488281 -2.390625 1.40625 -2.296875 C 1.332031 -2.203125 1.289062 -2.144531 1.28125 -2.125 C 1.71875 -2.351562 2.066406 -2.46875 2.328125 -2.46875 C 2.429688 -2.46875 2.523438 -2.4375 2.609375 -2.375 C 2.691406 -2.3125 2.753906 -2.238281 2.796875 -2.15625 C 2.847656 -2.082031 2.867188 -2.003906 2.859375 -1.921875 C 2.828125 -1.648438 2.632812 -1.425781 2.28125 -1.25 C 2.007812 -1.101562 1.753906 -1.03125 1.515625 -1.03125 C 1.265625 -1.03125 1.09375 -1.0625 1 -1.125 C 0.96875 -1.125 0.941406 -1.113281 0.921875 -1.09375 C 0.910156 -1.082031 0.910156 -1.0625 0.921875 -1.03125 C 1.054688 -0.425781 1.28125 -0.125 1.59375 -0.125 C 1.75 -0.125 1.953125 -0.210938 2.203125 -0.390625 C 2.460938 -0.578125 2.738281 -0.835938 3.03125 -1.171875 C 3.0625 -1.210938 3.09375 -1.234375 3.125 -1.234375 C 3.144531 -1.234375 3.15625 -1.21875 3.15625 -1.1875 C 3.15625 -1.15625 3.140625 -1.117188 3.109375 -1.078125 C 2.972656 -0.910156 2.8125 -0.734375 2.625 -0.546875 C 2.4375 -0.367188 2.242188 -0.21875 2.046875 -0.09375 C 1.847656 0.03125 1.660156 0.09375 1.484375 0.09375 Z M 1.0625 -1.21875 C 1.28125 -1.21875 1.5625 -1.304688 1.90625 -1.484375 C 2.3125 -1.679688 2.515625 -1.894531 2.515625 -2.125 C 2.515625 -2.164062 2.492188 -2.203125 2.453125 -2.234375 C 2.410156 -2.273438 2.363281 -2.296875 2.3125 -2.296875 C 2.050781 -2.296875 1.75 -2.195312 1.40625 -2 C 1.03125 -1.757812 0.800781 -1.503906 0.71875 -1.234375 C 0.769531 -1.234375 0.835938 -1.226562 0.921875 -1.21875 C 1.003906 -1.21875 1.050781 -1.21875 1.0625 -1.21875 Z M 1.0625 -1.21875 "/></g></g></g><g fill="#ffffff" fill-opacity="1"><g transform="translate(299.639375, 30.101137)"><g><path d="M 0.453125 0.046875 C 0.296875 0.046875 0.171875 0.0078125 0.078125 -0.0625 C -0.00390625 -0.144531 -0.046875 -0.28125 -0.046875 -0.46875 C -0.046875 -0.582031 -0.015625 -0.722656 0.046875 -0.890625 C 0.117188 -1.054688 0.203125 -1.238281 0.296875 -1.4375 C 0.398438 -1.632812 0.503906 -1.832031 0.609375 -2.03125 C 0.546875 -2.007812 0.488281 -2 0.4375 -2 C 0.289062 -2 0.21875 -2.054688 0.21875 -2.171875 C 0.21875 -2.222656 0.238281 -2.265625 0.28125 -2.296875 C 0.320312 -2.328125 0.359375 -2.34375 0.390625 -2.34375 C 0.390625 -2.34375 0.394531 -2.34375 0.40625 -2.34375 C 0.425781 -2.34375 0.445312 -2.347656 0.46875 -2.359375 L 0.875 -2.359375 C 0.96875 -2.460938 1.054688 -2.578125 1.140625 -2.703125 C 1.273438 -2.867188 1.378906 -2.96875 1.453125 -3 L 1.484375 -3 C 1.515625 -3 1.5625 -2.976562 1.625 -2.9375 C 1.695312 -2.894531 1.734375 -2.851562 1.734375 -2.8125 C 1.734375 -2.75 1.617188 -2.585938 1.390625 -2.328125 C 1.429688 -2.328125 1.492188 -2.328125 1.578125 -2.328125 C 1.660156 -2.328125 1.765625 -2.328125 1.890625 -2.328125 C 1.941406 -2.328125 2.019531 -2.328125 2.125 -2.328125 C 2.238281 -2.328125 2.351562 -2.328125 2.46875 -2.328125 C 2.59375 -2.328125 2.695312 -2.328125 2.78125 -2.328125 C 2.863281 -2.335938 2.910156 -2.34375 2.921875 -2.34375 C 2.929688 -2.332031 2.9375 -2.320312 2.9375 -2.3125 C 2.9375 -2.269531 2.65625 -2.210938 2.09375 -2.140625 C 1.769531 -2.097656 1.519531 -2.0625 1.34375 -2.03125 C 1.175781 -2.007812 1.085938 -2 1.078125 -2 C 1.003906 -1.9375 0.921875 -1.835938 0.828125 -1.703125 C 0.734375 -1.566406 0.632812 -1.410156 0.53125 -1.234375 C 0.4375 -1.054688 0.359375 -0.890625 0.296875 -0.734375 C 0.234375 -0.578125 0.203125 -0.457031 0.203125 -0.375 C 0.203125 -0.300781 0.226562 -0.238281 0.28125 -0.1875 C 0.34375 -0.132812 0.4375 -0.109375 0.5625 -0.109375 C 0.65625 -0.109375 0.757812 -0.125 0.875 -0.15625 C 1 -0.195312 1.113281 -0.242188 1.21875 -0.296875 C 1.332031 -0.347656 1.410156 -0.390625 1.453125 -0.421875 C 1.578125 -0.492188 1.710938 -0.59375 1.859375 -0.71875 C 2.015625 -0.851562 2.171875 -1 2.328125 -1.15625 C 2.390625 -1.226562 2.4375 -1.265625 2.46875 -1.265625 C 2.476562 -1.265625 2.484375 -1.253906 2.484375 -1.234375 C 2.484375 -1.191406 2.445312 -1.128906 2.375 -1.046875 C 2.257812 -0.910156 2.128906 -0.773438 1.984375 -0.640625 C 1.847656 -0.515625 1.691406 -0.398438 1.515625 -0.296875 C 1.316406 -0.171875 1.125 -0.0820312 0.9375 -0.03125 C 0.757812 0.0195312 0.597656 0.046875 0.453125 0.046875 Z M 0.453125 0.046875 "/></g></g></g><g fill="#ffffff" fill-opacity="1"><g transform="translate(301.781848, 30.101137)"><g><path d="M 0.484375 0.03125 C 0.367188 0.03125 0.253906 -0.00390625 0.140625 -0.078125 C 0.0234375 -0.160156 -0.0390625 -0.257812 -0.0625 -0.375 C -0.101562 -0.75 0.128906 -1.191406 0.640625 -1.703125 C 1.148438 -2.210938 1.609375 -2.46875 2.015625 -2.46875 C 2.128906 -2.46875 2.21875 -2.4375 2.28125 -2.375 C 2.3125 -2.34375 2.332031 -2.296875 2.34375 -2.234375 C 2.363281 -2.179688 2.378906 -2.15625 2.390625 -2.15625 C 2.410156 -2.15625 2.425781 -2.160156 2.4375 -2.171875 C 2.457031 -2.179688 2.476562 -2.1875 2.5 -2.1875 C 2.550781 -2.1875 2.597656 -2.160156 2.640625 -2.109375 C 2.691406 -2.066406 2.71875 -2.03125 2.71875 -2 C 2.726562 -1.988281 2.578125 -1.75 2.265625 -1.28125 C 1.953125 -0.820312 1.804688 -0.515625 1.828125 -0.359375 C 1.859375 -0.242188 1.914062 -0.1875 2 -0.1875 C 2.25 -0.1875 2.703125 -0.597656 3.359375 -1.421875 C 3.378906 -1.441406 3.394531 -1.453125 3.40625 -1.453125 C 3.425781 -1.453125 3.4375 -1.4375 3.4375 -1.40625 C 3.4375 -1.363281 3.414062 -1.316406 3.375 -1.265625 C 2.769531 -0.441406 2.300781 -0.03125 1.96875 -0.03125 C 1.925781 -0.03125 1.882812 -0.0351562 1.84375 -0.046875 C 1.632812 -0.128906 1.53125 -0.289062 1.53125 -0.53125 C 1.53125 -0.613281 1.539062 -0.691406 1.5625 -0.765625 L 1.109375 -0.34375 C 0.972656 -0.207031 0.847656 -0.109375 0.734375 -0.046875 C 0.628906 0.00390625 0.546875 0.03125 0.484375 0.03125 Z M 0.421875 -0.125 C 0.703125 -0.125 1.082031 -0.429688 1.5625 -1.046875 L 2.328125 -2.09375 C 2.285156 -2.15625 2.222656 -2.1875 2.140625 -2.1875 C 1.847656 -2.1875 1.453125 -1.953125 0.953125 -1.484375 C 0.429688 -1.003906 0.195312 -0.609375 0.25 -0.296875 C 0.269531 -0.179688 0.328125 -0.125 0.421875 -0.125 Z M 0.421875 -0.125 "/></g></g></g><g fill="#ffffff" fill-opacity="1"><g transform="translate(304.753896, 30.101137)"><g><path d="M -0.421875 1.359375 C -0.617188 1.253906 -0.71875 1.046875 -0.71875 0.734375 C -0.71875 0.398438 -0.445312 -0.164062 0.09375 -0.96875 C 0.613281 -1.738281 0.972656 -2.15625 1.171875 -2.21875 C 1.191406 -2.226562 1.207031 -2.234375 1.21875 -2.234375 C 1.238281 -2.234375 1.253906 -2.234375 1.265625 -2.234375 C 1.347656 -2.234375 1.390625 -2.144531 1.390625 -1.96875 C 1.421875 -2 1.476562 -2.03125 1.5625 -2.0625 C 1.65625 -2.09375 1.742188 -2.117188 1.828125 -2.140625 C 1.921875 -2.160156 1.988281 -2.175781 2.03125 -2.1875 C 2.226562 -2.1875 2.390625 -2.132812 2.515625 -2.03125 C 2.648438 -1.9375 2.71875 -1.800781 2.71875 -1.625 C 2.71875 -1.238281 2.484375 -0.863281 2.015625 -0.5 C 1.597656 -0.164062 1.222656 0 0.890625 0 C 0.671875 0 0.523438 -0.0078125 0.453125 -0.03125 C 0.335938 -0.0703125 0.21875 -0.160156 0.09375 -0.296875 C 0.0390625 -0.253906 -0.015625 -0.179688 -0.078125 -0.078125 C -0.140625 0.0234375 -0.195312 0.132812 -0.25 0.25 C -0.3125 0.375 -0.359375 0.492188 -0.390625 0.609375 C -0.429688 0.734375 -0.453125 0.835938 -0.453125 0.921875 C -0.453125 1.003906 -0.4375 1.070312 -0.40625 1.125 C -0.375 1.1875 -0.34375 1.238281 -0.3125 1.28125 C -0.3125 1.289062 -0.304688 1.296875 -0.296875 1.296875 C -0.296875 1.316406 -0.304688 1.335938 -0.328125 1.359375 C -0.359375 1.378906 -0.390625 1.378906 -0.421875 1.359375 Z M 0.796875 -0.203125 C 1.066406 -0.203125 1.378906 -0.335938 1.734375 -0.609375 C 2.148438 -0.941406 2.359375 -1.304688 2.359375 -1.703125 C 2.359375 -1.890625 2.242188 -1.984375 2.015625 -1.984375 C 1.804688 -1.984375 1.613281 -1.9375 1.4375 -1.84375 C 1.382812 -1.820312 1.304688 -1.757812 1.203125 -1.65625 C 1.097656 -1.550781 0.953125 -1.40625 0.765625 -1.21875 C 0.390625 -0.820312 0.203125 -0.570312 0.203125 -0.46875 C 0.203125 -0.375 0.28125 -0.300781 0.4375 -0.25 C 0.539062 -0.21875 0.660156 -0.203125 0.796875 -0.203125 Z M 0.796875 -0.203125 "/></g></g></g><g fill="#ffffff" fill-opacity="1"><g transform="translate(307.473463, 30.101137)"><g><path d="M 0.34375 0.078125 C 0.125 0.078125 0.015625 -0.0546875 0.015625 -0.328125 C 0.015625 -0.429688 0.046875 -0.554688 0.109375 -0.703125 C 0.171875 -0.859375 0.265625 -1.015625 0.390625 -1.171875 C 0.390625 -1.171875 0.34375 -1.128906 0.25 -1.046875 C 0.164062 -0.972656 0.0703125 -0.875 -0.03125 -0.75 C -0.0507812 -0.726562 -0.078125 -0.71875 -0.109375 -0.71875 C -0.128906 -0.71875 -0.140625 -0.726562 -0.140625 -0.75 C -0.140625 -0.769531 -0.117188 -0.8125 -0.078125 -0.875 L 0.921875 -2.046875 C 1.046875 -2.191406 1.179688 -2.265625 1.328125 -2.265625 C 1.441406 -2.265625 1.5 -2.21875 1.5 -2.125 C 1.5 -2.09375 1.484375 -2.0625 1.453125 -2.03125 C 1.367188 -1.945312 1.257812 -1.820312 1.125 -1.65625 C 0.988281 -1.5 0.859375 -1.328125 0.734375 -1.140625 C 0.609375 -0.960938 0.503906 -0.789062 0.421875 -0.625 C 0.335938 -0.457031 0.296875 -0.328125 0.296875 -0.234375 C 0.296875 -0.140625 0.320312 -0.09375 0.375 -0.09375 C 0.414062 -0.09375 0.472656 -0.109375 0.546875 -0.140625 C 0.617188 -0.171875 0.710938 -0.226562 0.828125 -0.3125 C 0.953125 -0.394531 1.097656 -0.523438 1.265625 -0.703125 C 1.296875 -0.734375 1.375 -0.816406 1.5 -0.953125 C 1.625 -1.097656 1.789062 -1.304688 2 -1.578125 C 2.375 -2.046875 2.617188 -2.28125 2.734375 -2.28125 C 2.890625 -2.28125 2.976562 -2.21875 3 -2.09375 C 3.007812 -2.039062 2.90625 -1.894531 2.6875 -1.65625 C 2.414062 -1.320312 2.226562 -1.085938 2.125 -0.953125 C 1.9375 -0.671875 1.84375 -0.453125 1.84375 -0.296875 C 1.84375 -0.191406 1.878906 -0.140625 1.953125 -0.140625 C 2.023438 -0.140625 2.117188 -0.175781 2.234375 -0.25 C 2.347656 -0.320312 2.46875 -0.410156 2.59375 -0.515625 C 2.71875 -0.617188 2.835938 -0.726562 2.953125 -0.84375 C 3.078125 -0.96875 3.179688 -1.082031 3.265625 -1.1875 C 3.296875 -1.21875 3.320312 -1.234375 3.34375 -1.234375 C 3.375 -1.234375 3.390625 -1.21875 3.390625 -1.1875 C 3.390625 -1.175781 3.382812 -1.160156 3.375 -1.140625 C 3.375 -1.128906 3.363281 -1.109375 3.34375 -1.078125 C 3.269531 -0.992188 3.171875 -0.882812 3.046875 -0.75 C 2.921875 -0.625 2.789062 -0.5 2.65625 -0.375 C 2.519531 -0.25 2.382812 -0.144531 2.25 -0.0625 C 2.125 0.0078125 2.015625 0.046875 1.921875 0.046875 C 1.804688 0.046875 1.707031 0.0195312 1.625 -0.03125 C 1.550781 -0.09375 1.515625 -0.175781 1.515625 -0.28125 C 1.515625 -0.394531 1.53125 -0.503906 1.5625 -0.609375 C 1.59375 -0.710938 1.617188 -0.804688 1.640625 -0.890625 C 1.410156 -0.617188 1.207031 -0.414062 1.03125 -0.28125 C 0.863281 -0.144531 0.722656 -0.0507812 0.609375 0 C 0.492188 0.0507812 0.40625 0.078125 0.34375 0.078125 Z M 0.34375 0.078125 "/></g></g></g><g fill="#ffffff" fill-opacity="1"><g transform="translate(310.53929, 30.101137)"><g><path d="M 1.46875 0.03125 C 1.257812 0.03125 1.117188 -0.0195312 1.046875 -0.125 C 0.972656 -0.226562 0.9375 -0.375 0.9375 -0.5625 C 0.9375 -0.757812 1 -1 1.125 -1.28125 C 1.164062 -1.394531 1.210938 -1.492188 1.265625 -1.578125 C 1.316406 -1.671875 1.375 -1.753906 1.4375 -1.828125 C 1.414062 -1.828125 1.394531 -1.828125 1.375 -1.828125 C 1.363281 -1.828125 1.351562 -1.828125 1.34375 -1.828125 C 1.226562 -1.828125 1.128906 -1.910156 1.046875 -2.078125 L 0.515625 -1.375 C 0.234375 -1.007812 0.0625 -0.828125 0 -0.828125 C -0.0195312 -0.828125 -0.03125 -0.835938 -0.03125 -0.859375 C -0.03125 -0.878906 -0.0195312 -0.910156 0 -0.953125 C 0.0078125 -0.972656 0.0390625 -1.007812 0.09375 -1.0625 C 0.269531 -1.269531 0.4375 -1.476562 0.59375 -1.6875 C 0.75 -1.894531 0.875 -2.097656 0.96875 -2.296875 C 1.082031 -2.710938 1.222656 -2.921875 1.390625 -2.921875 C 1.503906 -2.921875 1.5625 -2.867188 1.5625 -2.765625 C 1.5625 -2.679688 1.5 -2.5625 1.375 -2.40625 C 1.257812 -2.257812 1.203125 -2.1875 1.203125 -2.1875 C 1.203125 -2.082031 1.273438 -2.03125 1.421875 -2.03125 C 1.515625 -2.03125 1.613281 -2.0625 1.71875 -2.125 L 1.90625 -2.234375 C 1.914062 -2.242188 1.929688 -2.25 1.953125 -2.25 C 2.003906 -2.25 2.050781 -2.222656 2.09375 -2.171875 C 2.144531 -2.117188 2.160156 -2.078125 2.140625 -2.046875 L 1.640625 -1.421875 C 1.335938 -1.023438 1.1875 -0.707031 1.1875 -0.46875 C 1.1875 -0.25 1.289062 -0.140625 1.5 -0.140625 C 1.644531 -0.140625 1.800781 -0.179688 1.96875 -0.265625 C 2.132812 -0.347656 2.296875 -0.453125 2.453125 -0.578125 C 2.609375 -0.710938 2.738281 -0.835938 2.84375 -0.953125 L 3.015625 -1.15625 C 3.023438 -1.164062 3.035156 -1.175781 3.046875 -1.1875 C 3.066406 -1.207031 3.082031 -1.21875 3.09375 -1.21875 C 3.125 -1.21875 3.140625 -1.203125 3.140625 -1.171875 C 3.140625 -1.160156 3.132812 -1.140625 3.125 -1.109375 C 3.113281 -1.085938 3.097656 -1.066406 3.078125 -1.046875 L 2.84375 -0.78125 C 2.726562 -0.65625 2.585938 -0.523438 2.421875 -0.390625 C 2.265625 -0.265625 2.101562 -0.160156 1.9375 -0.078125 C 1.769531 -0.00390625 1.613281 0.03125 1.46875 0.03125 Z M 1.46875 0.03125 "/></g></g></g></svg>